<?xml version="1.0" standalone="no"?>
<!DOCTYPE svg PUBLIC "-//W3C//DTD SVG 20010904//EN"
 "http://www.w3.org/TR/2001/REC-SVG-20010904/DTD/svg10.dtd">
<svg version="1.0" xmlns="http://www.w3.org/2000/svg"
 width="923.000000pt" height="613.000000pt" viewBox="0 0 923.000000 613.000000"
 preserveAspectRatio="xMidYMid meet">

<g transform="translate(0.000000,613.000000) scale(0.100000,-0.100000)"
fill="#000000" stroke="none">
<path d="M0 3065 l0 -3065 840 0 c681 0 840 2 840 13 0 23 158 1278 174 1382
9 55 30 204 48 330 27 186 34 221 39 185 6 -45 6 -45 7 -7 1 20 7 37 12 37 16
0 11 -86 -7 -118 -14 -24 -15 -33 -4 -45 12 -15 46 -17 66 -5 6 3 30 6 55 6
25 0 58 5 73 11 16 6 34 11 42 11 7 0 15 7 19 15 6 17 42 20 51 5 4 -6 17 -3
34 9 19 14 31 17 38 10 8 -8 17 -8 31 0 11 6 30 11 41 11 11 0 35 9 53 20 18
11 50 20 71 20 20 0 37 5 37 10 0 6 15 10 33 11 27 0 29 2 12 9 -16 7 -13 9
18 9 32 1 37 -2 38 -21 l0 -23 11 21 c11 23 47 44 75 44 9 0 25 8 35 17 17 15
19 15 32 -2 9 -13 19 -16 37 -11 13 4 42 10 64 13 22 3 42 8 45 12 3 3 14 7
25 9 11 2 39 7 63 11 23 4 45 4 47 0 3 -4 19 -4 35 1 34 10 39 1 10 -18 -17
-10 -19 -19 -14 -55 4 -23 11 -47 16 -54 6 -7 4 -13 -4 -16 -8 -3 69 -87 192
-211 l205 -206 175 34 c96 19 207 37 245 41 39 3 117 16 175 27 58 12 146 22
195 24 50 1 135 10 190 19 55 9 116 14 135 10 26 -4 31 -3 20 4 -11 8 -5 11
27 11 23 0 44 4 47 9 3 4 51 11 108 15 56 4 105 9 110 12 19 12 -26 51 -84 73
-35 13 -79 31 -98 41 -48 24 -90 33 -103 22 -7 -5 -23 -12 -37 -15 -94 -20
-324 -67 -327 -67 -1 0 -3 13 -3 28 0 24 -8 32 -66 60 -37 18 -65 35 -63 37 9
8 221 27 309 27 52 0 111 3 130 8 l35 8 -33 1 c-34 1 -117 36 -140 58 -7 7
-20 13 -28 13 -8 0 -14 5 -14 10 0 6 12 10 28 10 28 1 22 4 -190 104 -42 20
-83 36 -91 36 -8 0 -20 7 -27 15 -7 8 -21 15 -31 15 -11 0 -19 4 -19 9 0 12
63 21 157 21 74 0 81 2 76 19 -4 15 3 19 42 24 26 4 58 4 71 1 13 -4 31 -1 39
6 8 6 24 9 37 5 22 -6 22 -5 -2 10 -33 22 -40 23 310 -80 751 -221 906 -267
1785 -537 270 -82 594 -181 720 -220 236 -72 314 -96 710 -219 127 -39 291
-89 365 -110 124 -37 186 -61 115 -45 -28 6 -29 5 -11 -9 24 -18 52 -19 60 -2
5 9 7 9 12 0 3 -7 12 -9 21 -6 12 5 14 3 8 -7 -6 -10 -4 -12 9 -7 25 10 101
-13 84 -26 -9 -6 -5 -7 12 -3 33 7 195 -45 177 -57 -7 -5 -1 -6 16 -2 19 4 26
2 22 -4 -3 -6 0 -8 8 -5 8 3 33 0 56 -6 29 -7 39 -15 35 -25 -4 -8 -12 -15
-20 -15 -8 0 -14 -4 -14 -8 0 -11 -81 -54 -88 -47 -3 3 3 12 14 19 10 8 15 18
11 23 -5 4 -14 0 -21 -9 -7 -10 -15 -16 -17 -14 -2 3 -5 -10 -5 -28 l0 -34 30
19 c17 10 42 24 55 29 14 6 38 25 54 41 29 31 29 31 71 16 22 -9 58 -20 79
-26 l37 -9 0 928 0 927 -110 8 -110 7 0 134 0 134 110 0 c103 0 110 1 110 20
0 19 -7 20 -114 20 l-113 0 4 28 c13 81 36 191 46 220 l11 32 83 0 83 0 0 430
c0 280 -3 430 -10 430 -5 0 -10 -6 -10 -14 0 -8 -15 -17 -35 -20 -19 -4 -35
-12 -35 -17 0 -19 -28 -39 -54 -39 -14 0 -26 -3 -26 -7 0 -5 -7 -16 -14 -26
-21 -27 -44 -11 -51 36 -4 23 -12 48 -18 55 -13 17 -22 398 -33 1345 -4 378
-9 686 -11 683 -5 -4 -4 -1010 1 -1766 2 -322 2 -550 -1 -507 -2 42 -8 77 -13
77 -20 0 -40 -13 -40 -26 0 -8 -7 -14 -15 -14 -8 0 -15 7 -15 15 0 11 -11 15
-40 15 -27 0 -40 -4 -40 -14 0 -9 -19 -15 -57 -19 -32 -3 -59 -11 -61 -17 -2
-5 -12 -10 -23 -10 -10 0 -19 -4 -19 -10 0 -5 -6 -10 -14 -10 -7 0 -16 -9 -19
-20 -4 -14 -14 -20 -32 -20 -15 0 -35 -8 -44 -18 -20 -23 -93 -42 -160 -42
-37 0 -51 -4 -51 -14 0 -10 -18 -16 -62 -20 -159 -15 -178 -18 -178 -27 0 -5
-9 -9 -20 -9 -11 0 -20 -4 -20 -10 0 -5 -9 -10 -20 -10 -11 0 -20 -6 -20 -13
0 -30 -251 -48 -419 -31 -50 6 -61 10 -61 25 0 15 -8 19 -40 19 -22 0 -40 4
-40 9 0 5 -24 11 -52 14 -29 3 -74 11 -100 18 -43 11 -48 15 -48 41 0 21 -5
28 -20 28 -11 0 -20 5 -20 10 0 6 -13 10 -30 10 -19 0 -30 5 -30 14 0 19 -24
27 -60 19 -24 -4 -35 0 -55 21 -13 14 -34 26 -47 27 -22 1 -22 1 2 8 22 6 23
8 7 14 -10 4 -28 7 -38 7 -16 0 -19 5 -14 20 3 11 2 20 -3 20 -15 0 -22 107
-31 450 l-8 305 -1 -342 c-1 -188 -5 -348 -8 -357 -5 -14 -8 -14 -21 -1 -8 8
-24 15 -36 15 -25 1 -51 18 -60 40 -4 12 -6 11 -6 -2 -1 -11 -9 -18 -22 -18
-16 0 -20 5 -16 19 4 16 -4 21 -54 30 -49 10 -59 15 -59 33 0 15 -5 19 -20 15
-11 -3 -20 -2 -20 3 0 14 -117 60 -154 60 -20 0 -54 9 -76 20 -22 11 -44 20
-50 20 -5 0 -19 8 -30 18 -10 9 -31 27 -44 40 -14 12 -30 22 -36 22 -33 0
-120 80 -120 110 0 11 -4 20 -10 20 -5 0 -10 7 -10 16 0 8 -7 22 -15 30 -8 9
-15 24 -15 35 0 10 -4 19 -10 19 -5 0 -10 9 -10 20 0 11 -9 29 -20 40 -10 10
-16 21 -12 24 9 5 209 93 422 186 173 75 212 95 173 87 -13 -3 -23 -2 -23 2 0
4 -13 15 -30 24 -16 10 -35 28 -41 39 -10 18 -8 24 12 40 13 11 17 17 9 14
-30 -10 -270 -116 -301 -131 -17 -9 -33 -15 -35 -12 -2 2 76 41 173 87 556
259 581 272 587 293 3 12 6 34 6 49 0 20 4 26 15 22 12 -5 15 2 15 29 0 34 3
38 88 85 112 63 200 105 218 105 8 0 14 5 14 10 0 6 3 8 6 5 8 -8 111 34 191
78 253 139 296 157 273 114 -9 -16 -8 -20 5 -20 20 0 82 60 63 60 -8 1 -6 6 6
15 16 12 22 12 28 2 6 -9 10 -9 17 1 5 9 24 13 53 11 24 -2 50 1 56 5 7 4 24
5 37 2 13 -3 27 -1 30 4 4 6 10 8 15 5 5 -3 14 4 20 15 6 11 17 20 24 20 8 0
19 7 26 15 7 8 20 15 30 15 20 0 30 19 30 58 0 61 9 70 119 124 l106 53 -130
3 c-128 3 -130 2 -187 -28 -65 -35 -80 -34 -18 1 22 12 38 24 35 27 -4 5 -3 5
-630 -330 -758 -406 -916 -489 -924 -483 -5 2 -7 19 -6 37 2 18 3 99 4 180 1
137 2 148 21 158 14 7 26 8 38 1 15 -9 15 -10 -4 -11 -24 0 -50 -25 -36 -34 9
-5 188 89 220 116 9 8 33 23 52 32 19 10 53 28 75 41 22 14 56 33 75 45 70 41
152 92 160 100 3 3 23 13 44 23 22 10 63 34 90 52 28 18 63 39 79 46 40 18 33
29 -18 29 -29 0 -56 -7 -73 -19 -15 -11 -47 -32 -71 -48 -24 -15 -56 -36 -70
-45 -42 -27 -84 -48 -88 -44 -2 2 50 37 116 77 l121 74 -355 3 -356 2 -352
-253 c-194 -139 -422 -302 -507 -361 -85 -60 -176 -124 -202 -143 -27 -19 -48
-32 -48 -29 0 2 38 33 85 67 47 34 85 64 85 66 0 3 -9 -1 -20 -8 -152 -106
-348 -234 -325 -213 17 15 65 60 109 101 43 41 105 93 137 116 33 22 59 45 59
51 0 5 -8 2 -17 -6 -16 -14 -171 -123 -200 -142 -30 -18 -8 4 52 54 36 29 63
55 60 58 -7 7 15 32 29 32 6 0 2 -7 -8 -15 -11 -8 -15 -15 -9 -15 14 0 35 25
27 33 -6 5 163 145 221 182 17 11 150 110 295 220 l263 200 -217 3 -218 2 -38
-32 c-21 -18 -169 -143 -329 -278 l-290 -245 0 -597 c-1 -328 2 -599 7 -602 4
-2 6 -24 4 -48 l-4 -43 -72 -1 c-52 -1 -81 -6 -104 -20 -18 -10 -32 -21 -32
-25 0 -12 63 -19 181 -19 106 0 121 -2 139 -20 20 -20 20 -20 16 20 -4 49 -6
52 -53 59 -36 6 -38 8 -41 49 -3 45 3 49 58 33 24 -7 24 -7 5 -19 -19 -11 -18
-11 7 -12 16 0 42 -13 60 -29 19 -16 45 -31 58 -34 21 -3 19 -5 -10 -7 -28 -2
-17 -7 55 -24 85 -21 90 -23 90 -49 1 -24 -6 -29 -80 -55 -44 -16 -97 -35
-117 -41 l-38 -13 0 -94 c0 -86 9 -117 24 -79 3 8 15 15 26 15 15 0 20 -7 20
-29 0 -16 6 -31 13 -34 6 -2 1 -2 -13 -1 -14 2 -35 -5 -49 -16 l-23 -20 4
-256 c3 -195 7 -257 17 -263 10 -7 10 -9 -1 -14 -10 -3 -14 -19 -13 -51 l2
-46 -64 0 -63 0 0 -56 c0 -54 -1 -56 -22 -50 -13 3 -77 6 -143 7 -108 2 -115
3 -72 12 44 10 47 12 48 44 1 18 3 38 4 43 1 6 3 13 4 18 1 4 5 1 10 -6 4 -8
34 -16 68 -19 56 -5 60 -4 76 21 10 15 27 26 39 26 21 0 21 0 2 14 -10 8 -16
18 -12 22 4 4 3 13 -4 21 -8 10 -8 12 3 8 18 -7 40 27 29 45 -6 10 -36 14
-102 16 -51 1 -129 7 -173 14 -44 7 -145 14 -225 15 -242 4 -377 9 -330 13 43
3 83 22 47 22 -9 0 -17 4 -17 9 0 9 57 21 102 21 21 0 25 4 21 20 -3 12 0 20
7 20 8 0 9 10 5 29 -5 25 -3 29 22 34 15 3 44 2 63 -2 29 -6 35 -11 32 -30 -1
-13 5 -29 14 -36 13 -9 14 -16 5 -33 -16 -31 -14 -32 24 -12 21 11 72 21 126
25 50 4 86 11 79 15 -9 5 -9 9 -1 14 6 4 9 20 6 35 -4 22 0 30 18 39 20 10 19
10 -8 6 l-30 -6 2 171 c2 148 0 169 -13 164 -12 -4 -15 -23 -13 -94 2 -85 -1
-95 -20 -87 -7 2 -19 102 -21 167 0 8 -6 11 -17 6 -14 -5 -238 -74 -406 -125
-15 -5 -27 -5 -27 -1 0 6 42 21 186 66 15 4 -4 95 -20 95 -6 0 -3 7 8 15 20
16 15 51 -6 39 -7 -4 -10 -3 -5 1 16 19 49 15 54 -5 5 -19 6 -19 18 -3 10 14
18 15 36 7 28 -12 123 -8 147 6 15 8 13 10 -8 11 -70 5 -117 3 -107 -4 7 -5
-1 -6 -18 -3 -16 3 -75 13 -130 21 -217 34 -220 35 -210 66 4 13 2 19 -9 19
-9 0 -16 -6 -16 -14 0 -25 12 -46 26 -46 11 0 14 -17 14 -70 0 -43 -4 -70 -11
-70 -5 0 -8 3 -6 8 3 4 -29 7 -71 8 -47 1 -69 -2 -57 -7 19 -7 19 -8 -2 -8
-12 -1 -27 -10 -33 -21 -13 -23 -3 -25 24 -5 25 19 46 19 46 0 0 -8 7 -15 15
-15 8 0 15 7 15 15 0 18 4 18 33 4 21 -10 21 -10 3 5 -26 21 1 21 29 1 19 -15
19 -16 1 -45 -11 -19 -16 -45 -14 -68 3 -32 0 -37 -20 -40 -17 -3 -25 2 -29
17 -5 19 -6 19 -29 -5 -14 -13 -29 -24 -34 -24 -20 0 -40 13 -40 26 0 8 -7 14
-15 14 -9 0 -15 -6 -14 -12 4 -32 -4 -39 -10 -8 -6 33 -9 35 -48 38 -24 2 -43
8 -43 13 0 5 15 9 33 7 17 -2 34 2 35 7 2 6 8 16 14 23 8 9 6 12 -8 12 -15 0
-16 2 -5 9 12 8 12 12 2 25 -10 12 -11 19 -2 30 8 9 11 63 10 165 -2 135 2
174 15 160 5 -5 15 -112 16 -168 l0 -44 21 27 c11 14 27 26 34 26 8 0 17 10
21 22 6 19 7 19 16 5 5 -10 18 -17 30 -17 20 0 20 1 4 19 -20 22 -13 29 57 57
26 10 45 24 43 30 -5 12 283 164 310 164 8 0 14 -4 14 -10 0 -5 -4 -10 -10
-10 -5 0 -10 -4 -10 -10 0 -5 7 -7 15 -4 8 4 15 1 15 -5 0 -21 19 -11 32 17
10 21 22 28 55 33 52 7 56 11 55 49 -1 35 -1 35 96 16 40 -7 75 -10 77 -5 3 4
2 187 -2 406 -3 219 -7 444 -7 500 l-1 103 -55 16 c-30 9 -257 89 -505 179
-247 89 -639 231 -870 314 -231 83 -431 156 -444 162 -18 8 -14 0 19 -38 76
-85 89 -127 91 -289 l1 -142 29 -6 c28 -5 29 -8 29 -60 0 -30 -4 -57 -8 -60
-9 -5 -267 30 -282 39 -5 3 -11 18 -11 33 -1 23 -3 22 -8 -8 -4 -19 -1 -59 6
-89 16 -74 9 -103 -33 -126 -19 -10 -34 -22 -34 -27 0 -4 -18 -8 -40 -8 -22 0
-40 -4 -40 -9 0 -9 86 -33 464 -127 126 -32 225 -59 219 -61 -15 -5 -569 131
-680 168 -18 6 -38 7 -45 3 -22 -14 -62 -18 -166 -18 l-104 1 4 -29 c5 -32 2
-33 -69 -14 l-52 14 -4 -67 -3 -66 -2 81 c-2 85 -7 95 -52 109 -14 4 -30 15
-36 23 -7 9 -18 12 -33 7 -28 -9 -21 -31 8 -27 15 1 21 -3 19 -10 -3 -7 -17
-14 -31 -16 -19 -2 -25 1 -22 10 3 7 -5 26 -18 42 l-23 28 -76 -25 c-144 -49
-362 -59 -496 -23 -56 15 -122 50 -171 91 -33 28 -85 128 -83 160 2 43 13 85
21 81 4 -3 6 5 4 18 -3 13 2 30 11 39 9 8 16 23 16 32 0 8 7 18 15 21 8 4 13
10 10 14 -7 11 22 33 34 26 5 -3 16 -3 25 0 15 6 15 8 -1 20 -17 12 -16 15 10
41 18 18 30 24 35 17 4 -7 15 -8 27 -3 17 6 17 8 3 8 -24 1 -22 22 5 46 34 31
125 77 131 66 3 -5 16 -7 27 -4 21 6 21 7 4 20 -15 10 -16 13 -3 13 8 0 30 8
48 17 22 10 35 13 37 6 2 -6 13 -9 24 -6 11 3 18 11 15 18 -6 16 75 39 85 24
8 -14 39 0 33 16 -4 9 10 16 48 23 l53 10 -76 1 c-52 1 -94 -5 -134 -19 -66
-23 -82 -21 -33 3 31 15 -36 17 -919 17 l-953 0 0 -3065z m8181 3013 c-5 -15
-37 -38 -92 -67 -66 -35 -80 -39 -64 -21 l20 23 -22 -7 c-47 -15 -20 5 65 48
48 25 90 45 94 45 4 1 4 -9 -1 -21z m-6364 -4 c-3 -3 -12 -4 -19 -1 -8 3 -5 6
6 6 11 1 17 -2 13 -5z m5143 -134 c0 -5 -5 -10 -11 -10 -5 0 -7 5 -4 10 3 6 8
10 11 10 2 0 4 -4 4 -10z m-40 -30 c0 -5 -6 -10 -14 -10 -8 0 -32 -10 -53 -22
-48 -27 -36 -13 14 18 42 26 53 29 53 14z m-115 -60 c-3 -5 -23 -19 -45 -31
-22 -12 -37 -26 -35 -30 3 -4 -8 -10 -25 -14 -16 -4 -30 -11 -30 -16 0 -5 -7
-9 -15 -9 -9 0 -18 -6 -21 -14 -6 -14 -63 -40 -71 -32 -3 2 5 9 16 16 12 6 21
7 21 3 0 -4 4 -2 9 6 7 11 187 129 199 131 2 0 1 -4 -3 -10z m-3018 -226 c-3
-3 -12 -4 -19 -1 -8 3 -5 6 6 6 11 1 17 -2 13 -5z m113 -34 c12 -8 12 -10 -5
-10 -11 0 -27 5 -35 10 -12 8 -12 10 5 10 11 0 27 -5 35 -10z m-2567 -144 c31
-44 4 -22 -34 27 -23 28 -26 36 -10 22 13 -11 33 -33 44 -49z m2851 45 c4 -5
-3 -7 -14 -4 -23 6 -26 13 -6 13 8 0 17 -4 20 -9z m-1097 -137 c-3 -3 -12 -4
-19 -1 -8 3 -5 6 6 6 11 1 17 -2 13 -5z m40 -10 c-3 -3 -12 -4 -19 -1 -8 3 -5
6 6 6 11 1 17 -2 13 -5z m-2974 -93 c20 -8 27 -17 27 -38 1 -25 2 -26 14 -10
17 22 22 21 56 -3 35 -25 47 -67 26 -89 -14 -13 -19 -12 -47 14 -17 17 -67 73
-112 125 -47 56 -62 78 -36 53 24 -23 56 -46 72 -52z m2842 79 c18 -8 18 -9 2
-9 -10 -1 -16 -5 -13 -10 3 -4 -7 -6 -22 -2 -27 5 -27 5 -3 9 19 3 21 6 10 13
-18 11 -1 10 26 -1z m245 -16 l35 -14 -35 6 c-19 4 -50 13 -70 20 l-35 14 35
-6 c19 -4 50 -13 70 -20z m-1060 6 c-8 -5 -22 -9 -30 -9 -10 0 -8 3 5 9 27 12
43 12 25 0z m1085 -59 c311 -81 314 -82 286 -92 -25 -10 -244 39 -235 52 2 4
-4 5 -14 2 -16 -4 -52 4 -218 46 -17 5 -39 13 -50 19 -31 18 3 14 70 -8 33
-11 69 -20 80 -19 12 0 -22 14 -74 30 -134 41 -78 30 155 -30z m-1188 33 c-3
-3 -12 -4 -19 -1 -8 3 -5 6 6 6 11 1 17 -2 13 -5z m1248 -4 c13 -5 14 -9 5 -9
-8 0 -24 4 -35 9 -13 5 -14 9 -5 9 8 0 24 -4 35 -9z m3350 -16 c19 -14 37 -38
40 -55 4 -16 10 -29 13 -29 10 0 69 40 59 40 -4 0 -1 14 8 30 20 38 50 40 59
4 4 -15 6 -28 4 -29 -9 -8 -314 -151 -376 -176 -40 -16 -100 -43 -133 -60 -34
-17 -63 -29 -65 -26 -2 2 31 21 75 42 73 36 78 41 89 82 7 24 12 52 12 63 0
12 16 29 46 46 28 17 41 30 34 34 -8 5 -5 9 8 12 11 3 26 1 33 -6 9 -8 10 -7
6 7 -6 15 -3 17 12 12 11 -3 22 -1 26 5 3 5 1 10 -5 10 -6 0 -8 5 -5 10 10 16
24 12 60 -16z m-4660 6 c-11 -5 -31 -8 -45 -8 l-25 0 25 8 c14 4 34 8 45 8
l20 1 -20 -9z m1362 -6 c-3 -3 -12 -4 -19 -1 -8 3 -5 6 6 6 11 1 17 -2 13 -5z
m-189 -96 c251 -65 357 -88 360 -80 10 30 22 -5 22 -65 0 -52 -3 -64 -14 -60
-8 3 -112 29 -233 57 -120 28 -281 67 -358 86 -77 18 -149 36 -160 38 -18 5
-20 12 -17 61 3 48 7 55 25 55 11 0 180 -41 375 -92z m340 60 c40 -12 70 -23
68 -25 -4 -5 -198 46 -206 54 -7 8 54 -6 138 -29z m-1690 -15 c-16 -2 -40 -2
-55 0 -16 2 -3 4 27 4 30 0 43 -2 28 -4z m1799 -19 c-3 -3 -12 -4 -19 -1 -8 3
-5 6 6 6 11 1 17 -2 13 -5z m-1760 -10 c-3 -3 -12 -4 -19 -1 -8 3 -5 6 6 6 11
1 17 -2 13 -5z m1863 -16 c0 -6 -7 -7 -16 -4 -9 3 -22 6 -30 6 -9 0 -13 4 -10
9 7 11 56 2 56 -11z m160 -38 c30 -11 49 -19 42 -20 -17 0 -176 41 -182 47
-10 11 86 -8 140 -27z m-3688 -465 l17 -30 7 33 c4 22 12 32 24 32 10 0 20 6
23 13 3 8 29 11 93 10 49 -1 105 2 123 7 28 8 39 6 55 -8 14 -12 12 -6 -7 20
-15 20 -27 39 -27 41 0 2 21 -1 47 -6 35 -9 48 -8 51 1 2 7 8 12 14 12 6 0 8
-6 5 -14 -4 -9 4 -16 21 -21 15 -3 38 -14 52 -22 23 -16 23 -17 5 -24 -20 -7
-20 -8 -1 -8 29 -1 95 -50 112 -83 18 -35 50 -191 58 -283 3 -38 3 -64 0 -58
-7 16 -34 -8 -34 -30 0 -25 -25 -40 -39 -23 -6 8 -20 12 -30 9 -15 -4 -20 2
-23 29 -6 40 -1 58 18 58 8 0 14 10 14 23 -1 35 -102 228 -130 246 -24 15 -24
15 -11 -2 11 -14 13 -48 8 -171 -4 -109 -3 -156 6 -165 8 -8 8 -14 -1 -23 -9
-9 -12 -8 -12 6 0 10 -6 16 -12 13 -7 -2 -13 -11 -13 -20 0 -8 -3 -19 -7 -22
-4 -4 -10 20 -14 54 -3 34 -10 61 -14 61 -18 0 -40 -13 -40 -24 0 -6 -9 -17
-20 -24 -11 -7 -20 -19 -20 -27 0 -8 -4 -15 -10 -15 -5 0 -7 7 -4 15 4 9 0 15
-10 15 -9 0 -16 5 -16 11 0 5 5 7 10 4 13 -8 13 1 0 25 -6 11 -26 22 -45 26
-20 3 -35 12 -35 20 0 8 -4 14 -8 14 -14 0 -52 36 -52 49 0 6 -13 11 -30 11
-16 0 -30 5 -30 10 0 6 9 10 20 10 11 0 20 5 20 10 0 6 -9 10 -20 10 -11 0
-20 5 -20 10 0 6 -9 10 -20 10 -13 0 -20 7 -20 20 0 12 -9 22 -23 26 -22 5
-25 14 -35 99 -13 105 -16 381 -4 465 5 39 8 -11 12 -170 4 -187 8 -230 22
-255z m3677 419 c3 -2 -18 -3 -45 -2 -42 1 -74 15 -74 31 0 6 112 -22 119 -29z
m121 16 c20 -6 21 -8 5 -8 -11 0 -29 3 -40 8 -25 11 1 11 35 0z m-171 -60 c23
-6 41 -13 39 -15 -2 -3 -20 0 -39 5 -76 22 -82 2 -6 -22 49 -16 36 -17 -27 -2
-52 13 -24 -17 34 -37 52 -18 44 -19 -27 -4 -25 5 -33 3 -33 -7 0 -10 45 -26
138 -51 298 -81 332 -91 328 -94 -2 -2 -82 14 -177 36 -96 21 -201 45 -234 52
-33 7 -64 16 -69 20 -5 4 -5 42 -1 84 5 61 9 73 18 61 7 -8 32 -20 56 -26z
m271 30 c8 -5 11 -10 5 -10 -5 0 -17 5 -25 10 -8 5 -10 10 -5 10 6 0 17 -5 25
-10z m2200 -49 c0 -9 -9 -22 -20 -29 -17 -11 -20 -10 -20 7 0 11 -3 26 -6 34
-4 11 1 13 20 10 15 -3 26 -12 26 -22z m37 3 c-3 -3 -12 -4 -19 -1 -8 3 -5 6
6 6 11 1 17 -2 13 -5z m-5882 -44 c23 -11 58 -38 75 -60 l33 -41 -73 5 c-54 4
-78 10 -94 25 -23 22 -65 88 -49 78 5 -3 15 -2 23 4 22 13 36 11 85 -11z m130
-71 c3 -9 15 -21 28 -27 13 -7 16 -11 7 -11 -21 -1 -30 7 -75 64 l-40 50 37
-30 c20 -16 39 -37 43 -46z m1478 -29 c4 0 7 11 7 24 0 28 30 39 67 25 13 -5
32 -9 41 -9 15 0 15 2 2 11 -30 20 111 -5 640 -113 190 -38 350 -74 356 -79 6
-5 13 -6 17 -3 7 7 285 -47 414 -81 89 -23 105 -32 177 -98 17 -16 47 -39 66
-52 60 -39 73 -60 78 -126 l5 -61 -49 7 c-77 10 -75 8 -68 69 l7 55 -34 6
c-19 3 -55 9 -82 14 -26 5 -49 5 -52 2 -2 -4 -5 -29 -6 -55 l-3 -48 -50 5
c-137 15 -142 15 -31 -4 260 -45 479 -87 451 -88 l-28 -1 23 -21 24 -20 -49 4
c-39 4 -53 1 -69 -14 -13 -12 -16 -19 -8 -19 15 0 13 -13 -18 -125 -26 -91
-46 -149 -74 -208 -18 -40 -26 -47 -47 -45 -18 2 -26 11 -31 36 -5 25 -3 32
10 32 14 0 14 2 1 10 -21 14 -28 12 -33 -7 -3 -12 -5 -8 -6 9 0 15 6 33 14 41
13 13 13 16 -1 21 -13 5 -15 19 -11 79 6 96 48 186 81 174 12 -5 15 0 13 16
-2 19 -11 24 -72 34 -89 15 -108 15 -100 3 3 -5 -3 -10 -14 -10 -23 0 -37 -17
-18 -22 11 -2 11 -11 0 -48 l-13 -45 5 45 c4 32 2 41 -5 30 -5 -8 -10 -24 -10
-35 0 -20 -26 -100 -38 -119 -29 -45 -57 -226 -35 -226 6 0 14 -7 17 -16 6
-15 -3 -16 -91 -10 -54 4 -117 9 -140 12 -42 6 -43 7 -39 40 4 26 -1 41 -20
61 -19 21 -24 22 -24 9 0 -10 -4 -15 -10 -11 -5 3 -6 13 -3 22 4 11 3 14 -6 9
-6 -4 -9 -16 -6 -27 14 -44 14 -80 0 -85 -13 -6 -155 6 -490 40 -268 28 -412
39 -426 33 -8 -3 2 -6 21 -6 41 -1 441 -39 488 -47 l33 -5 -23 -18 c-22 -17
-32 -17 -262 4 l-239 21 -27 32 c-22 27 -33 32 -71 32 -69 0 -75 8 -61 78 15
71 15 82 2 82 -5 0 -10 -11 -10 -25 0 -32 -27 -33 -40 -1 -10 27 -57 43 -74
26 -13 -13 17 -40 43 -40 14 0 14 -2 1 -10 -10 -6 -13 -22 -11 -49 2 -39 1
-41 -26 -41 -15 0 -45 3 -66 6 -33 6 -35 8 -20 19 10 7 22 11 27 8 5 -4 6 -1
2 5 -4 7 -16 12 -26 12 -24 0 -66 51 -75 89 -4 21 0 45 16 78 19 42 22 66 23
186 1 100 4 140 14 146 8 4 10 15 6 26 -7 16 -3 17 26 11 18 -3 31 -3 27 0 -3
3 -70 17 -149 30 -79 13 -174 31 -213 39 -38 8 -83 16 -100 18 -23 3 -20 4 13
6 34 1 42 5 42 20 0 11 -8 22 -17 25 -47 13 152 -9 311 -35 175 -29 246 -33
129 -8 -32 7 -61 15 -65 18 -4 3 -10 30 -14 59 -6 47 -5 52 12 52 44 1 -36 28
-148 50 -65 13 -115 26 -113 30 3 5 22 10 42 13 54 7 127 29 134 40 4 5 41 9
82 9 54 0 80 4 88 14 10 12 15 10 33 -16 12 -16 24 -30 29 -30z m-1578 -47
l27 -38 -31 32 c-28 29 -37 43 -27 43 2 0 16 -17 31 -37z m1138 0 c4 -2 7 -12
7 -22 0 -10 6 -24 14 -30 8 -6 16 -28 18 -47 l4 -36 -50 7 c-98 12 -96 10 -96
74 0 32 3 61 7 65 7 7 80 -1 96 -11z m2997 -13 c0 -5 -4 -10 -10 -10 -5 0 -10
5 -10 10 0 6 5 10 10 10 6 0 10 -4 10 -10z m-333 -16 c-3 -3 -12 -4 -19 -1 -8
3 -5 6 6 6 11 1 17 -2 13 -5z m-4137 -161 c-1 -106 -3 -133 -12 -118 -6 11
-16 25 -24 31 -9 7 -11 26 -7 68 3 32 9 52 13 46 8 -13 20 36 20 81 0 16 2 29
5 29 3 0 5 -62 5 -137z m790 87 c19 -5 44 -12 55 -14 11 -3 -8 -3 -42 0 -34 3
-85 12 -115 19 l-53 13 60 -4 c33 -3 76 -9 95 -14z m123 -27 c-7 -2 -21 -2
-30 0 -10 3 -4 5 12 5 17 0 24 -2 18 -5z m50 -10 c-7 -2 -19 -2 -25 0 -7 3 -2
5 12 5 14 0 19 -2 13 -5z m140 -20 c-7 -2 -19 -2 -25 0 -7 3 -2 5 12 5 14 0
19 -2 13 -5z m4504 -90 c-2 -21 -4 -6 -4 32 0 39 2 55 4 38 2 -18 2 -50 0 -70z
m-4450 81 c-3 -3 -12 -4 -19 -1 -8 3 -5 6 6 6 11 1 17 -2 13 -5z m130 -20 c-3
-3 -12 -4 -19 -1 -8 3 -5 6 6 6 11 1 17 -2 13 -5z m197 -50 c9 -3 16 -11 16
-16 0 -16 -112 0 -130 19 -14 14 -10 15 42 9 31 -3 63 -9 72 -12z m19 -46 c19
-15 37 -208 37 -395 l0 -113 -29 0 c-27 0 -28 2 -34 57 -4 34 -12 62 -21 69
-11 8 -18 47 -26 150 -6 76 -15 152 -21 168 -5 16 -9 40 -9 52 0 22 5 24 43
24 24 0 51 -6 60 -12z m4109 -70 c-5 -113 -9 -125 -10 -30 -1 50 1 92 6 92 4
0 6 -28 4 -62z m-952 -72 c0 -10 -71 -47 -80 -41 -15 9 -12 28 3 22 7 -3 24 1
38 9 25 14 39 17 39 10z m-145 -51 c-24 -8 -116 -12 -103 -4 7 5 36 8 63 8 28
0 46 -2 40 -4z m-3339 -127 c-2 -29 -9 -42 -20 -44 -9 -1 -16 2 -16 7 0 5 5 9
10 9 6 0 10 18 10 41 0 24 4 38 10 34 5 -3 8 -25 6 -47z m141 7 c8 -9 14 -17
12 -19 -8 -7 -49 14 -49 24 0 15 19 12 37 -5z m4318 -1 l65 -16 0 -54 c0 -57
-1 -56 65 -66 18 -3 20 -11 21 -98 l1 -95 -7 90 c-3 50 -7 82 -8 73 -1 -10 -9
-18 -17 -18 -8 0 -17 -11 -21 -25 -4 -18 -13 -25 -30 -25 -13 0 -24 6 -25 13
0 8 -2 8 -5 1 -5 -12 -95 -7 -104 6 -11 16 -76 17 -108 3 -18 -9 -36 -13 -39
-9 -3 3 -7 47 -7 97 l-1 92 65 22 c81 29 77 28 155 9z m-5155 -64 c8 -5 11
-12 7 -16 -4 -4 -15 0 -24 9 -18 18 -8 23 17 7z m830 6 c0 -11 -19 -15 -25 -6
-3 5 1 10 9 10 9 0 16 -2 16 -4z m2230 -91 c0 -25 -4 -45 -9 -45 -11 0 -20 46
-14 71 10 35 23 19 23 -26z m-2882 -2 c-10 -2 -28 -2 -40 0 -13 2 -5 4 17 4
22 1 32 -1 23 -4z m5261 -82 c41 -37 43 -40 36 -79 -8 -47 -22 -55 -64 -39
-35 13 -37 17 -47 111 -8 78 -6 79 75 7z m-4422 16 c6 2 14 -1 18 -6 4 -7 -10
-11 -41 -11 -40 0 -45 2 -34 15 8 10 18 12 29 6 9 -5 21 -6 28 -4z m2008 3
c-3 -5 -11 -10 -16 -10 -6 0 -7 5 -4 10 3 6 11 10 16 10 6 0 7 -4 4 -10z m32
-22 c-3 -8 -6 -5 -6 6 -1 11 2 17 5 13 3 -3 4 -12 1 -19z m765 1 c9 -5 29 -9
45 -10 15 0 22 -3 14 -6 -7 -3 -9 -8 -4 -12 6 -3 12 -25 16 -48 4 -33 2 -43
-9 -43 -8 0 -14 -9 -14 -20 0 -11 5 -20 10 -20 6 0 10 5 10 11 0 5 5 7 11 3
22 -13 -19 -26 -42 -13 -19 9 -21 9 -16 -4 6 -15 -20 -33 -31 -22 -3 3 1 5 8
5 7 0 11 2 8 5 -11 11 -57 -7 -61 -23 -3 -10 -5 9 -6 41 0 31 -5 57 -10 57 -5
0 -7 -9 -4 -20 3 -11 0 -20 -6 -20 -7 0 -11 28 -11 79 l0 80 38 -6 c20 -3 45
-10 54 -14z m-805 -36 c-3 -10 -5 -4 -5 12 0 17 2 24 5 18 2 -7 2 -21 0 -30z
m1106 20 c-7 -2 -19 -2 -25 0 -7 3 -2 5 12 5 14 0 19 -2 13 -5z m747 -7 c0
-19 -39 -31 -53 -17 -8 8 -5 11 11 11 12 0 22 5 22 10 0 6 5 10 10 10 6 0 10
-6 10 -14z m59 -113 c1 -28 -3 -43 -11 -43 -8 0 -9 -3 -3 -8 13 -10 11 -72 -2
-72 -5 0 -7 21 -5 47 1 27 3 84 4 128 1 72 1 76 9 35 4 -25 8 -64 8 -87z
m-1879 67 c0 -13 -11 -13 -30 0 -12 8 -11 10 8 10 12 0 22 -4 22 -10z m1760
-24 c0 -28 -4 -34 -25 -38 -23 -5 -25 -2 -25 28 0 30 7 37 43 43 4 0 7 -14 7
-33z m60 9 c0 -20 -5 -25 -25 -25 -14 0 -25 5 -25 11 0 6 9 8 22 4 16 -6 20
-4 15 8 -5 13 0 27 10 27 2 0 3 -11 3 -25z m-3270 -10 c19 -23 8 -26 -19 -4
-16 13 -18 19 -8 19 8 0 20 -7 27 -15z m2542 -125 c-3 -77 -4 -80 -28 -80 -22
0 -24 4 -24 41 0 28 6 46 18 55 16 13 16 13 0 14 -11 0 -18 8 -18 19 0 17 13
26 45 30 6 1 9 -30 7 -79z m-74 39 c-2 -16 -15 -25 -48 -35 -59 -18 -69 -17
-66 3 2 10 22 24 52 34 64 23 66 23 62 -2z m-913 -10 c5 -5 -7 -9 -32 -9 -57
0 -133 11 -128 19 5 10 148 1 160 -10z m-565 -107 c19 -7 30 -7 32 -1 6 17 79
29 183 29 114 0 145 -6 145 -27 0 -12 7 -14 28 -9 15 3 70 9 122 12 52 4 100
11 107 16 8 7 14 0 18 -25 13 -68 10 -70 -90 -68 -49 1 -92 4 -96 6 -3 3 -99
7 -213 10 l-206 6 0 -48 c-1 -40 -3 -45 -13 -32 -7 9 -22 19 -35 23 -21 7 -22
11 -20 114 1 59 3 84 5 55 4 -46 7 -52 33 -61z m2295 100 c-20 -18 -127 -73
-120 -62 3 6 32 24 63 40 60 31 72 35 57 22z m-2475 -12 c0 -5 -5 -10 -11 -10
-5 0 -7 5 -4 10 3 6 8 10 11 10 2 0 4 -4 4 -10z m-960 -9 c0 -12 -28 -22 -34
-12 -3 5 -3 11 1 15 9 9 33 7 33 -3z m815 -1 c3 -5 1 -10 -4 -10 -6 0 -11 5
-11 10 0 6 2 10 4 10 3 0 8 -4 11 -10z m1665 6 c0 -2 -7 -7 -16 -10 -8 -3 -12
-2 -9 4 6 10 25 14 25 6z m-2140 -30 c0 -30 15 -34 145 -42 155 -11 158 -24 3
-19 -102 3 -138 1 -141 -8 -4 -9 -7 -9 -14 0 -5 6 -33 14 -63 17 -33 3 -45 2
-30 -2 22 -7 23 -9 7 -15 -10 -4 -15 -12 -12 -18 4 -6 13 -8 20 -5 14 5 25
-14 25 -41 0 -11 -8 -14 -29 -11 -24 3 -32 0 -40 -20 -12 -24 -41 -27 -49 -4
-2 7 6 12 20 13 26 1 21 3 -39 19 -36 9 -43 15 -43 35 0 16 6 25 16 25 8 0 12
5 9 10 -3 6 1 10 9 10 10 0 13 -6 10 -15 -5 -11 1 -15 22 -14 16 0 23 3 15 6
-11 5 -11 7 0 14 11 7 10 9 -3 9 -10 0 -18 7 -18 15 0 11 8 13 30 9 20 -5 30
-3 30 6 0 7 7 10 15 6 11 -4 19 3 25 19 8 20 16 25 45 25 30 0 35 -3 35 -24z
m2280 -11 c0 -35 0 -35 -43 -35 -24 0 -46 3 -49 6 -14 13 6 42 35 52 52 17 57
15 57 -23z m-2385 15 c3 -5 1 -10 -4 -10 -6 0 -11 5 -11 10 0 6 2 10 4 10 3 0
8 -4 11 -10z m1018 -2 c3 -9 -7 -14 -32 -15 -27 -1 -31 0 -16 6 19 8 18 9 -5
13 -19 4 -17 6 11 7 21 0 39 -4 42 -11z m85 -5 c-10 -2 -26 -2 -35 0 -10 3 -2
5 17 5 19 0 27 -2 18 -5z m1119 -25 c-3 -7 -5 -2 -5 12 0 14 2 19 5 13 2 -7 2
-19 0 -25z m-2362 11 c4 -6 5 -12 4 -14 -7 -7 -59 8 -59 16 0 13 47 11 55 -2z
m1511 2 c5 -6 32 -12 59 -14 28 -2 3 -3 -54 -3 -74 1 -106 5 -109 14 -5 15 89
17 104 3z m-1609 -21 c3 -11 14 -20 24 -20 14 0 19 -7 19 -30 0 -31 -6 -36
-29 -21 -8 5 -10 14 -5 22 7 12 5 12 -9 1 -22 -18 -37 -7 -37 27 0 43 27 59
37 21z m993 10 c11 -7 5 -8 -20 -4 -43 8 -51 14 -19 14 13 0 31 -5 39 -10z
m2393 -14 l-52 -9 5 -33 c3 -21 1 -34 -5 -34 -6 0 -11 17 -11 39 0 37 1 38 43
48 23 5 49 7 57 4 8 -3 -9 -10 -37 -15z m-4015 -1 c-9 -10 -117 -12 -112 -3 3
4 30 8 61 8 31 0 54 -2 51 -5z m1789 -1 c-3 -3 -12 -4 -19 -1 -8 3 -5 6 6 6
11 1 17 -2 13 -5z m686 -1 c-7 -2 -19 -2 -25 0 -7 3 -2 5 12 5 14 0 19 -2 13
-5z m-1053 -23 c78 0 290 -23 290 -32 0 -4 -6 -8 -12 -7 -7 0 -84 6 -171 12
-87 7 -161 9 -163 5 -3 -4 -3 -28 0 -52 5 -44 5 -45 -22 -41 -19 2 -26 7 -24
20 2 10 -1 14 -8 10 -6 -4 -8 -14 -6 -23 4 -13 -1 -17 -19 -18 -25 -2 -26 0
-23 52 2 44 6 54 20 54 20 0 24 -15 7 -26 -8 -4 -7 -9 2 -15 23 -15 29 -10 29
21 0 24 4 30 23 31 20 2 20 2 -3 7 -23 4 -24 5 -5 12 11 4 24 4 30 -1 5 -5 29
-9 55 -9z m1050 -20 c0 -14 7 -20 23 -20 14 0 24 -6 24 -15 0 -11 -12 -15 -44
-15 -36 0 -43 3 -43 20 0 11 5 20 11 20 8 0 8 5 -1 15 -10 13 -9 15 9 15 14 0
21 -6 21 -20z m565 -10 c-3 -5 -11 -10 -16 -10 -6 0 -7 5 -4 10 3 6 11 10 16
10 6 0 7 -4 4 -10z m-2079 -12 c4 -6 3 -8 -4 -4 -5 3 -12 0 -15 -6 -2 -7 -8
-9 -13 -5 -5 4 -2 12 6 17 19 12 17 12 26 -2z m1682 -4 c9 -3 10 -9 3 -21 -7
-13 -22 -18 -58 -18 -47 0 -49 1 -45 25 3 23 7 25 45 22 23 -2 48 -5 55 -8z
m149 -51 c-3 -10 -5 -2 -5 17 0 19 2 27 5 18 2 -10 2 -26 0 -35z m186 -73 c19
0 34 13 41 37 5 14 12 20 22 16 8 -3 21 3 28 13 12 16 14 16 14 -10 0 -21 -7
-30 -27 -37 -14 -5 -36 -14 -48 -21 -12 -6 -28 -8 -36 -5 -8 3 -20 1 -26 -4
-8 -6 -8 -5 -1 3 6 7 11 39 12 73 l2 60 3 -62 c3 -41 8 -63 16 -63z m314 73
c-3 -10 -5 -4 -5 12 0 17 2 24 5 18 2 -7 2 -21 0 -30z m-2577 16 c-11 -8 -12
-12 -2 -16 14 -5 17 -43 3 -43 -5 0 -17 7 -26 16 -15 15 -15 18 1 35 9 11 22
19 28 19 6 0 4 -5 -4 -11z m2317 -11 c-3 -8 -6 -5 -6 6 -1 11 2 17 5 13 3 -3
4 -12 1 -19z m195 4 c13 -6 14 -10 4 -24 -6 -9 -21 -18 -31 -20 -15 -2 -21 3
-23 25 -3 28 12 34 50 19z m745 -34 c-3 -7 -5 -2 -5 12 0 14 2 19 5 13 2 -7 2
-19 0 -25z m-3002 1 c5 -5 0 -9 -15 -10 -23 -1 -23 -1 5 -10 17 -6 83 -11 148
-13 71 -2 123 -8 130 -15 8 -8 7 -11 -6 -11 -9 0 -17 -4 -17 -10 0 -5 9 -10
21 -10 11 0 18 -4 14 -9 -3 -6 -27 -8 -53 -6 -26 3 -113 8 -194 11 l-148 6 0
39 c0 41 9 49 30 25 6 -8 18 -12 26 -9 23 9 16 23 -11 23 -14 0 -25 5 -25 11
0 14 79 4 95 -12z m2392 15 c-3 -3 -12 -4 -19 -1 -8 3 -5 6 6 6 11 1 17 -2 13
-5z m683 -5 c-24 -5 -48 -5 -52 -1 -4 4 17 8 45 9 l52 1 -45 -9z m-2417 -16
c-7 -2 -19 -2 -25 0 -7 3 -2 5 12 5 14 0 19 -2 13 -5z m1677 -3 c0 -5 -7 -10
-16 -10 -8 0 -12 5 -9 10 3 6 10 10 16 10 5 0 9 -4 9 -10z m-1615 -10 c-3 -5
-12 -10 -20 -10 -8 0 -17 5 -20 10 -4 6 5 10 20 10 15 0 24 -4 20 -10z m42
-12 c-3 -8 -6 -5 -6 6 -1 11 2 17 5 13 3 -3 4 -12 1 -19z m2212 8 c-2 -2 -22
-6 -44 -10 -29 -5 -36 -4 -25 3 13 10 79 16 69 7z m-2335 -28 l51 -1 -45 -7
-45 -7 45 -3 c25 -2 57 -3 73 -2 15 1 27 -2 27 -8 0 -5 -6 -10 -12 -11 -10 0
-10 -2 0 -6 38 -15 -2 -21 -110 -17 -169 7 -229 14 -222 25 3 6 18 9 32 8 53
-4 102 1 102 11 0 6 -20 10 -44 10 -25 0 -48 5 -52 12 -5 8 13 10 71 5 43 -4
101 -8 129 -9z m-884 -8 c11 -7 7 -10 -18 -10 -20 0 -31 4 -27 10 8 13 26 13
45 0z m630 0 c0 -5 -4 -10 -10 -10 -5 0 -10 5 -10 10 0 6 5 10 10 10 6 0 10
-4 10 -10z m2727 -87 c-2 -16 -4 -3 -4 27 0 30 2 43 4 28 2 -16 2 -40 0 -55z
m-1034 30 c-7 -2 -19 -2 -25 0 -7 3 -2 5 12 5 14 0 19 -2 13 -5z m-430 -40
c-7 -2 -19 -2 -25 0 -7 3 -2 5 12 5 14 0 19 -2 13 -5z m115 -10 c-10 -2 -28
-2 -40 0 -13 2 -5 4 17 4 22 1 32 -1 23 -4z m125 -10 c-13 -2 -35 -2 -50 0
-16 2 -5 4 22 4 28 0 40 -2 28 -4z m1225 -28 c-1 -14 -6 -25 -10 -25 -4 0 -6
10 -4 23 6 28 5 27 11 27 3 0 4 -11 3 -25z m-178 1 c0 -2 -7 -6 -15 -10 -8 -3
-15 -1 -15 4 0 6 7 10 15 10 8 0 15 -2 15 -4z m-1660 -25 c-8 -4 -46 -4 -85
-1 l-70 7 85 1 c47 1 78 -2 70 -7z m1737 3 c-3 -3 -12 -4 -19 -1 -8 3 -5 6 6
6 11 1 17 -2 13 -5z m-3537 -9 c0 -2 -10 -9 -22 -15 -22 -11 -22 -10 -4 4 21
17 26 19 26 11z m3637 -37 c-3 -7 -5 -2 -5 12 0 14 2 19 5 13 2 -7 2 -19 0
-25z m-3730 16 c-3 -3 -12 -4 -19 -1 -8 3 -5 6 6 6 11 1 17 -2 13 -5z m1832 2
c-2 -2 -28 -11 -58 -20 -57 -17 -62 -9 -8 11 31 11 75 17 66 9z m-1771 -43
c-10 -2 -26 -2 -35 0 -10 3 -2 5 17 5 19 0 27 -2 18 -5z m1646 -8 c-5 -12 -15
-14 -39 -9 -51 9 -73 -1 -67 -32 3 -16 -1 -30 -9 -35 -10 -6 -7 -9 11 -10 21
0 18 -3 -15 -15 -22 -8 -56 -13 -75 -12 -29 2 -36 7 -39 28 -1 14 -8 28 -14
32 -17 10 -10 14 88 41 107 30 167 35 159 12z m2026 11 c0 -3 -4 -8 -10 -11
-5 -3 -10 -1 -10 4 0 6 5 11 10 11 6 0 10 -2 10 -4z m-3775 -16 c-3 -5 -12
-10 -18 -10 -7 0 -6 4 3 10 19 12 23 12 15 0z m1020 -17 c13 -10 25 -21 25
-25 0 -4 -84 -9 -187 -11 -104 -2 -53 -2 112 1 165 3 327 5 359 6 36 1 61 6
63 13 3 7 11 9 19 6 17 -6 19 -25 2 -22 -7 1 -26 -3 -41 -9 -16 -7 -34 -12
-42 -12 -29 0 -45 -13 -45 -36 0 -17 -8 -27 -25 -34 -15 -6 -25 -17 -25 -30 0
-19 -6 -20 -140 -20 l-140 0 -1 -87 c-1 -127 -3 -143 -19 -153 -13 -8 -15 9
-18 115 l-3 125 -178 0 c-225 0 -363 9 -358 24 2 6 19 14 38 17 l34 6 -37 2
-38 1 0 46 0 47 143 -5 c78 -3 131 -2 117 3 -14 4 -52 7 -84 8 l-59 1 24 26
24 26 228 -6 c196 -5 231 -8 252 -23z m-865 7 c0 -13 -11 -13 -30 0 -12 8 -11
10 8 10 12 0 22 -4 22 -10z m320 -10 c0 -14 -7 -20 -22 -20 -20 0 -21 1 -3 20
10 11 20 20 22 20 1 0 3 -9 3 -20z m795 0 c4 -6 -23 -10 -74 -10 -47 0 -81 4
-81 10 0 6 31 10 74 10 41 0 78 -4 81 -10z m5912 -37 c-3 -10 -5 -2 -5 17 0
19 2 27 5 18 2 -10 2 -26 0 -35z m77 32 c-4 -8 -7 -15 -9 -15 -2 0 -5 7 -9 15
-3 9 0 15 9 15 9 0 12 -6 9 -15z m-5514 -3 c0 -14 -48 -33 -55 -22 -4 6 1 10
10 10 9 0 13 5 10 10 -3 6 3 10 14 10 12 0 21 -4 21 -8z m5320 -2 c-19 -4 -28
-8 -20 -10 8 -1 2 -6 -14 -10 -31 -10 -89 -2 -81 10 3 5 -1 11 -7 13 -7 3 25
5 72 5 62 0 76 -3 50 -8z m-220 -19 c0 -12 -4 -21 -9 -21 -14 0 -37 -78 -40
-135 -2 -27 -5 -53 -7 -57 -3 -5 72 -8 167 -8 95 0 170 -2 168 -5 -5 -4 -595
-9 -888 -6 -145 1 -162 3 -151 16 15 19 9 100 -13 163 -11 32 -12 44 -4 47 18
6 377 20 590 23 183 3 187 3 187 -17z m-6570 -21 c0 -15 -7 -20 -27 -20 -21 0
-24 3 -13 10 16 10 11 13 -35 23 -11 3 1 5 28 6 41 1 47 -2 47 -19z m5593 -2
c-5 -7 -9 -57 -8 -111 l0 -97 -140 2 c-84 2 -140 7 -141 13 0 6 -10 44 -23 85
-12 41 -24 83 -27 92 -6 21 19 24 210 26 109 2 137 -1 129 -10z m-368 -75 c4
-43 6 -78 4 -78 -1 0 3 -10 10 -22 10 -20 9 -23 -7 -23 -13 0 -24 12 -32 33
-7 17 -24 58 -38 90 -28 64 -23 77 29 77 26 0 27 -2 34 -77z m-3727 42 c4 -9
27 -18 50 -21 23 -3 52 -9 65 -13 19 -8 17 -10 -23 -20 -102 -27 -107 -30
-106 -59 1 -21 -4 -28 -21 -30 -13 -2 -23 -10 -23 -17 0 -20 -32 -85 -42 -85
-15 0 -8 29 8 38 26 14 6 33 -31 30 -22 -1 -35 -8 -38 -19 -3 -12 1 -15 13
-12 20 5 29 -14 31 -67 4 -138 1 -180 -16 -237 -22 -72 -42 -85 -30 -20 5 23
9 83 9 132 1 50 5 93 9 96 5 3 -1 9 -12 12 -12 3 -21 1 -21 -4 0 -5 -9 -9 -20
-9 -11 0 -20 5 -20 10 0 6 -12 10 -27 10 -41 0 -55 13 -50 46 5 37 34 44 46
12 6 -13 10 -17 10 -9 1 7 12 22 27 33 14 11 22 23 19 26 -3 4 -10 0 -15 -8
-7 -11 -10 -7 -10 15 -1 27 -2 28 -14 13 -11 -16 -13 -15 -27 4 -8 11 -20 27
-27 34 -7 8 -10 14 -5 14 38 0 180 23 188 31 5 6 4 9 -4 9 -7 0 -11 6 -8 14 7
19 -18 24 -63 14 -73 -16 -95 -6 -24 11 39 10 87 15 107 13 22 -2 37 0 37 6 0
9 15 16 42 21 4 0 11 -6 16 -14z m-81 -1 c-3 -3 -12 -4 -19 -1 -8 3 -5 6 6 6
11 1 17 -2 13 -5z m-1440 -24 c-16 -13 -39 -20 -64 -19 -21 1 -30 3 -20 6 11
3 16 11 13 19 -4 11 6 14 46 14 l51 0 -26 -20z m2312 -17 c0 -5 -7 -24 -14
-43 -14 -37 -20 -16 -9 28 6 20 25 32 23 15z m71 -3 c0 -5 -5 -10 -11 -10 -5
0 -7 5 -4 10 3 6 8 10 11 10 2 0 4 -4 4 -10z m4547 -22 c-3 -8 -6 -5 -6 6 -1
11 2 17 5 13 3 -3 4 -12 1 -19z m-5567 2 c0 -5 -4 -10 -10 -10 -5 0 -10 5 -10
10 0 6 5 10 10 10 6 0 10 -4 10 -10z m-123 -22 c-3 -8 -6 -5 -6 6 -1 11 2 17
5 13 3 -3 4 -12 1 -19z m1123 12 c0 -13 -11 -13 -30 0 -12 8 -11 10 8 10 12 0
22 -4 22 -10z m-3866 -31 c-3 -5 -10 -7 -15 -3 -5 3 -7 10 -3 15 3 5 10 7 15
3 5 -3 7 -10 3 -15z m592 10 c3 -5 13 -5 22 -1 23 12 138 8 135 -4 -2 -5 -119
-9 -295 -9 -228 0 -292 3 -296 13 -3 10 41 12 212 11 119 -1 219 -5 222 -10z
m2494 7 c0 -11 -19 -15 -25 -6 -3 5 1 10 9 10 9 0 16 -2 16 -4z m-1357 -13
c-18 -2 -48 -2 -65 0 -18 2 -4 4 32 4 36 0 50 -2 33 -4z m135 0 c-15 -2 -42
-2 -60 0 -18 2 -6 4 27 4 33 0 48 -2 33 -4z m135 0 c-18 -2 -48 -2 -65 0 -18
2 -4 4 32 4 36 0 50 -2 33 -4z m135 0 c-15 -2 -42 -2 -60 0 -18 2 -6 4 27 4
33 0 48 -2 33 -4z m170 0 c-15 -2 -42 -2 -60 0 -18 2 -6 4 27 4 33 0 48 -2 33
-4z m120 0 c-15 -2 -42 -2 -60 0 -18 2 -6 4 27 4 33 0 48 -2 33 -4z m59 1 c-3
-3 -12 -4 -19 -1 -8 3 -5 6 6 6 11 1 17 -2 13 -5z m163 -4 c0 -5 -7 -10 -16
-10 -8 0 -12 5 -9 10 3 6 10 10 16 10 5 0 9 -4 9 -10z m5787 -62 c-2 -13 -4
-5 -4 17 -1 22 1 32 4 23 2 -10 2 -28 0 -40z m-4657 -33 c-6 -19 -16 -35 -20
-35 -5 0 -7 6 -5 13 2 6 10 32 16 57 10 34 14 40 17 22 2 -12 -2 -38 -8 -57z
m-3570 20 l0 -45 134 0 134 0 6 26 c4 14 4 34 1 45 -5 14 -2 19 11 19 14 0 16
-7 10 -46 -3 -25 -8 -50 -12 -55 -3 -5 -70 -9 -150 -9 -130 0 -144 2 -144 18
0 9 -3 34 -6 55 -5 24 -3 37 5 37 6 0 11 -18 11 -45z m365 7 c0 -27 1 -27 69
-29 38 -1 72 -6 75 -12 4 -5 31 -11 61 -14 30 -2 -2 -4 -72 -5 -71 -1 -131 -3
-135 -4 -5 -2 -9 22 -11 52 -2 30 0 51 4 47 5 -4 8 -20 9 -35z m1152 32 c-3
-3 -12 -4 -19 -1 -8 3 -5 6 6 6 11 1 17 -2 13 -5z m268 -4 c-3 -5 -12 -10 -18
-10 -7 0 -6 4 3 10 19 12 23 12 15 0z m385 0 c-19 -13 -30 -13 -30 0 0 6 10
10 23 10 18 0 19 -2 7 -10z m-293 -11 c-14 -8 -22 -8 -30 0 -8 8 -3 11 19 11
25 -1 27 -2 11 -11z m176 4 c-7 -2 -19 -2 -25 0 -7 3 -2 5 12 5 14 0 19 -2 13
-5z m-540 -10 c-7 -2 -21 -2 -30 0 -10 3 -4 5 12 5 17 0 24 -2 18 -5z m37 -24
c0 -5 -27 -9 -60 -9 -33 0 -60 4 -60 8 0 4 27 9 60 9 33 1 60 -3 60 -8z m130
1 c0 -5 -25 -10 -55 -10 -30 0 -55 5 -55 10 0 6 25 10 55 10 30 0 55 -4 55
-10z m135 0 c-3 -5 -28 -10 -56 -10 -27 0 -49 5 -49 10 0 6 25 10 56 10 34 0
53 -4 49 -10z m125 0 c0 -5 -22 -10 -49 -10 -28 0 -53 5 -56 10 -4 6 15 10 49
10 31 0 56 -4 56 -10z m170 0 c-20 -13 -87 -13 -95 0 -4 6 16 10 52 10 41 0
54 -3 43 -10z m107 -2 c-20 -7 -39 -7 -60 0 -29 9 -27 10 28 10 53 0 57 -1 32
-10z m583 -8 c0 -5 -4 -10 -10 -10 -5 0 -10 5 -10 10 0 6 5 10 10 10 6 0 10
-4 10 -10z m228 3 c-10 -2 -28 -2 -40 0 -13 2 -5 4 17 4 22 1 32 -1 23 -4z
m3567 -13 c-3 -5 -17 -10 -31 -10 -14 0 -22 4 -19 10 3 6 17 10 31 10 14 0 22
-4 19 -10z m355 -9 c-25 -7 -25 -8 -23 -110 l1 -103 -30 6 c-17 3 -54 7 -82 7
l-51 2 40 7 c22 4 30 8 18 9 -11 0 -33 15 -47 32 -24 28 -30 43 -38 94 -3 16
-11 19 -35 18 -18 -2 -36 4 -43 12 -11 13 -5 15 41 17 l54 1 -65 7 c-44 4 -9
7 110 7 96 1 164 -2 150 -6z m840 1 c165 -5 211 -8 155 -12 l-80 -5 4 -72 c3
-74 -12 -142 -32 -144 -7 -1 -1 -5 13 -9 53 -17 -432 -4 -585 15 l-40 5 1 65
c1 36 5 72 8 80 3 9 -1 18 -9 21 -23 9 -18 34 8 35 12 1 -7 7 -43 14 -61 12
-52 13 150 14 118 0 321 -2 450 -7z m439 -79 c-1 -75 -2 -76 -9 -27 -4 28 -12
60 -19 71 -9 18 -8 22 7 26 9 3 18 5 20 6 1 0 1 -34 1 -76z m-6134 57 c3 -5 2
-10 -4 -10 -5 0 -13 5 -16 10 -3 6 -2 10 4 10 5 0 13 -4 16 -10z m25 -30 c0
-5 -25 -10 -56 -10 -34 0 -53 4 -49 10 3 6 28 10 56 10 27 0 49 -4 49 -10z
m115 0 c-3 -5 -26 -10 -51 -10 -24 0 -44 5 -44 10 0 6 23 10 51 10 31 0 48 -4
44 -10z m110 0 c-28 -12 -85 -12 -85 0 0 6 24 10 53 9 38 0 47 -3 32 -9z m118
-1 c-7 -7 -24 -8 -54 -1 l-44 10 55 1 c39 1 51 -2 43 -10z m-923 -9 c0 -6 -24
-10 -56 -10 -30 0 -53 3 -50 8 7 11 106 14 106 2z m140 0 c0 -5 -25 -10 -55
-10 -30 0 -55 5 -55 10 0 6 25 10 55 10 30 0 55 -4 55 -10z m130 0 c-20 -13
-97 -13 -105 0 -4 6 17 10 57 10 44 0 59 -3 48 -10z m108 3 c-15 -2 -42 -2
-60 0 -18 2 -6 4 27 4 33 0 48 -2 33 -4z m142 -33 c0 -5 -7 -10 -15 -10 -8 0
-15 5 -15 10 0 6 7 10 15 10 8 0 15 -4 15 -10z m2270 -10 c0 -5 -5 -10 -11
-10 -5 0 -7 5 -4 10 3 6 8 10 11 10 2 0 4 -4 4 -10z m-47 -7 c-7 -2 -19 -2
-25 0 -7 3 -2 5 12 5 14 0 19 -2 13 -5z m-1644 -85 c0 -46 -7 -101 -14 -123
-13 -38 -14 -33 -12 82 1 91 5 123 15 123 9 0 12 -23 11 -82z m-2138 20 c0
-29 2 -63 5 -75 4 -22 0 -23 -50 -23 -29 0 -94 -3 -144 -6 l-92 -7 0 76 0 76
53 4 c28 2 91 4 140 5 l87 2 1 -52z m1940 45 c-11 -5 -11 -7 0 -14 9 -5 -24
-9 -81 -9 -52 0 -173 -3 -269 -7 -131 -5 -172 -3 -167 5 5 9 -5 12 -36 11
l-43 -2 35 -6 35 -7 -50 -7 c-27 -3 -139 -9 -247 -13 -197 -6 -198 -6 -198 15
0 20 5 21 128 22 70 1 213 5 317 8 237 9 595 11 576 4z m987 0 c-27 -7 -21
-21 10 -26 25 -4 25 -4 -5 -6 -27 -1 -33 3 -33 19 0 14 6 20 23 19 16 -1 18
-2 5 -6z m-3456 -38 c3 -14 1 -25 -3 -25 -5 0 -9 11 -9 25 0 14 2 25 4 25 2 0
6 -11 8 -25z m143 0 c0 -11 -8 -21 -17 -23 -14 -3 -18 3 -18 23 0 20 4 26 18
23 9 -2 17 -12 17 -23z m2285 -15 c-12 -8 -12 -10 -1 -10 8 0 12 -2 10 -4 -2
-3 -95 -8 -206 -12 -166 -6 -206 -4 -219 7 -15 12 -10 15 47 20 115 10 385 10
369 -1z m1315 -10 c10 -11 14 -20 9 -20 -5 0 -15 9 -22 20 -7 11 -11 20 -9 20
2 0 12 -9 22 -20z m-3177 -71 c-19 -12 -21 -5 -12 43 l7 43 9 -39 c6 -29 5
-42 -4 -47z m237 72 c-3 -5 -1 -12 5 -16 15 -9 12 -55 -4 -55 -16 0 -29 37
-15 45 4 3 6 12 2 20 -3 8 0 15 7 15 6 0 9 -4 5 -9z m160 -1 c3 -5 1 -10 -4
-10 -6 0 -11 5 -11 10 0 6 2 10 4 10 3 0 8 -4 11 -10z m2500 0 c3 -5 1 -10 -4
-10 -6 0 -11 5 -11 10 0 6 2 10 4 10 3 0 8 -4 11 -10z m35 0 c0 -5 -4 -10 -10
-10 -5 0 -10 5 -10 10 0 6 5 10 10 10 6 0 10 -4 10 -10z m221 -7 c13 -17 13
-17 -6 -3 -11 8 -22 16 -24 17 -2 2 0 3 6 3 6 0 17 -8 24 -17z m-1926 -7 c11
-11 -3 -14 -92 -20 -166 -10 -187 -9 -170 8 26 26 238 36 262 12z m-1795 -41
c0 -25 -4 -45 -8 -45 -5 0 -8 20 -8 45 1 59 16 59 16 0z m158 1 c2 -32 0 -36
-23 -36 -22 0 -25 4 -25 34 0 25 5 36 18 39 25 5 28 2 30 -37z m8099 -8 c-2
-13 -4 -5 -4 17 -1 22 1 32 4 23 2 -10 2 -28 0 -40z m-7404 22 c3 -11 1 -23
-4 -26 -5 -3 -9 6 -9 20 0 31 6 34 13 6z m107 -5 c0 -9 -9 -15 -22 -15 -22 1
-23 1 -4 15 25 19 26 19 26 0z m2558 8 c-10 -2 -26 -2 -35 0 -10 3 -2 5 17 5
19 0 27 -2 18 -5z m826 -54 c-6 -11 -24 -2 -24 11 0 5 7 7 15 4 8 -4 12 -10 9
-15z m-2334 -19 c0 -5 -7 -10 -15 -10 -8 0 -15 5 -15 10 0 6 7 10 15 10 8 0
15 -4 15 -10z m2386 -7 c11 -15 16 -16 34 -5 20 12 20 11 10 -8 -7 -13 -7 -20
0 -20 5 0 10 -4 10 -9 0 -5 -8 -7 -17 -5 -16 5 -18 -2 -15 -55 l4 -61 -29 5
c-15 2 -45 7 -65 10 -31 5 -38 10 -38 28 0 12 -3 46 -7 76 l-6 54 27 -5 c14
-3 29 -1 32 3 9 15 46 10 60 -8z m-1115 -148 c4 -44 9 -100 13 -125 4 -32 3
-38 -3 -20 -5 15 -9 18 -10 9 -1 -9 6 -32 14 -52 14 -33 13 -36 -8 -50 -15 -9
-77 -19 -177 -27 l-155 -13 -77 36 -77 35 2 55 c1 30 5 51 8 46 3 -5 11 2 19
16 12 22 20 25 64 25 42 0 54 4 66 23 8 12 15 29 15 38 1 9 11 32 24 50 l23
34 127 0 126 -1 6 -79z m-863 68 c-21 -2 -55 -2 -75 0 -21 2 -4 4 37 4 41 0
58 -2 38 -4z m-188 -13 c-41 -4 -104 -7 -140 -7 l-65 0 55 7 c30 4 93 7 140 7
l85 0 -75 -7z m-310 -11 c-25 -4 -64 -8 -87 -8 -44 -1 -52 -8 -32 -28 11 -11
-13 -14 -216 -29 -81 -6 -88 -5 -76 10 7 9 17 13 22 10 5 -3 9 -3 9 1 0 3 -10
10 -22 15 -23 9 -23 9 2 10 14 1 104 8 200 14 96 7 191 13 210 13 31 0 30 0
-10 -8z m293 -26 c-7 -2 -19 -2 -25 0 -7 3 -2 5 12 5 14 0 19 -2 13 -5z
m-1903 -48 c0 -38 -3 -45 -20 -45 -17 0 -20 7 -20 45 0 38 3 45 20 45 17 0 20
-7 20 -45z m-170 25 c0 -5 -4 -10 -10 -10 -5 0 -10 5 -10 10 0 6 5 10 10 10 6
0 10 -4 10 -10z m2123 3 c-7 -2 -21 -2 -30 0 -10 3 -4 5 12 5 17 0 24 -2 18
-5z m-783 -13 c0 -5 -5 -10 -11 -10 -5 0 -7 5 -4 10 3 6 8 10 11 10 2 0 4 -4
4 -10z m698 3 c-21 -2 -55 -2 -75 0 -21 2 -4 4 37 4 41 0 58 -2 38 -4z m-235
-10 c-7 -2 -19 -2 -25 0 -7 3 -2 5 12 5 14 0 19 -2 13 -5z m-1805 -48 c-12
-10 -48 -15 -48 -6 0 6 6 11 14 11 7 0 17 10 21 23 l8 22 4 -23 c3 -13 3 -25
1 -27z m1675 38 c-16 -3 -23 -11 -23 -29 0 -13 -11 -34 -25 -46 -13 -11 -22
-24 -20 -28 4 -7 -115 -20 -187 -20 -37 0 -38 1 -38 36 0 40 -16 60 -51 66
-13 2 21 7 76 12 55 4 111 8 125 10 39 5 168 4 143 -1z m1514 -43 c12 -42 10
-73 -2 -34 -4 10 -13 34 -21 52 -11 26 -11 33 -2 30 7 -3 18 -24 25 -48z
m-3217 30 c0 -5 -4 -10 -10 -10 -5 0 -10 5 -10 10 0 6 5 10 10 10 6 0 10 -4
10 -10z m-44 -15 c-11 -8 -25 -15 -30 -15 -6 0 -2 7 8 15 11 8 25 15 30 15 6
0 2 -7 -8 -15z m1774 -15 c0 -5 -5 -10 -11 -10 -5 0 -7 5 -4 10 3 6 8 10 11
10 2 0 4 -4 4 -10z m918 -57 c-10 -2 -28 -2 -40 0 -13 2 -5 4 17 4 22 1 32 -1
23 -4z m-820 -70 c-10 -2 -26 -2 -35 0 -10 3 -2 5 17 5 19 0 27 -2 18 -5z
m1737 -3 c13 -5 14 -9 5 -9 -8 0 -24 4 -35 9 -13 5 -14 9 -5 9 8 0 24 -4 35
-9z m-1882 -7 c-24 -2 -43 -9 -43 -14 0 -6 -9 -8 -20 -4 -10 3 -28 1 -39 -4
-14 -8 -22 -8 -26 -1 -4 7 -11 8 -18 2 -11 -9 -106 -6 -115 2 -4 5 211 23 263
23 l40 0 -42 -4z m1978 -31 c-7 -2 -18 1 -23 6 -8 8 -4 9 13 5 13 -4 18 -8 10
-11z m-2298 1 c-7 -2 -21 -2 -30 0 -10 3 -4 5 12 5 17 0 24 -2 18 -5z m1482
-53 c22 -16 90 -18 173 -5 132 22 132 22 132 -25 0 -22 5 -40 10 -40 6 0 9
-23 9 -52 -1 -45 -2 -49 -9 -23 -7 28 -8 28 -9 -12 -2 -66 32 -118 54 -83 9
15 48 12 71 -5 18 -13 17 -14 -18 -15 -20 0 -47 -5 -60 -10 -13 -6 -57 -17
-98 -24 -61 -11 -68 -14 -35 -15 35 -1 75 -19 75 -33 0 -2 -26 -5 -57 -6 -31
-1 -59 -5 -62 -10 -19 -29 -216 -45 -275 -22 -32 12 -106 78 -106 95 0 16 25
23 69 20 l34 -2 -32 26 c-34 28 -39 41 -16 41 12 0 14 15 12 83 -2 78 -3 82
-25 81 -12 0 -22 3 -22 8 0 4 11 8 25 8 22 0 25 4 25 39 l0 40 63 -26 c34 -14
67 -28 72 -33z m378 3 c-7 -2 -21 -2 -30 0 -10 3 -4 5 12 5 17 0 24 -2 18 -5z
m-606 -19 c-3 -3 -12 -4 -19 -1 -8 3 -5 6 6 6 11 1 17 -2 13 -5z m-32 -24 c-3
-5 -21 -10 -39 -10 -47 0 -164 -78 -151 -101 9 -14 67 -11 114 6 23 8 72 17
109 20 l67 4 -70 -13 c-38 -8 -95 -19 -125 -26 -61 -15 -110 -8 -110 15 0 8
26 33 57 57 51 37 72 45 146 57 5 0 5 -3 2 -9z m32 -116 c-3 -3 -12 -4 -19 -1
-8 3 -5 6 6 6 11 1 17 -2 13 -5z m-1470 -66 c-3 -7 -5 -2 -5 12 0 14 2 19 5
13 2 -7 2 -19 0 -25z m1441 25 c-10 -2 -26 -2 -35 0 -10 3 -2 5 17 5 19 0 27
-2 18 -5z m-968 -128 c-11 -13 -35 -15 -68 -6 -2 1 0 6 3 11 3 6 22 10 42 10
31 0 34 -2 23 -15z m937 -157 c17 3 43 -10 86 -43 l62 -47 -63 62 c-70 68 -77
91 -12 39 l42 -34 177 -2 c111 -1 212 4 275 14 60 8 102 11 108 5 6 -6 -11
-12 -44 -16 -29 -4 -96 -15 -148 -25 -52 -10 -149 -27 -215 -37 l-120 -18 5
-58 c5 -47 3 -57 -8 -53 -7 3 -16 5 -18 5 -3 0 -3 4 1 9 3 5 -27 43 -67 83
-40 40 -91 93 -113 117 -39 43 -39 43 -7 20 20 -14 44 -23 59 -21z m3 18 c0
-2 -7 -7 -16 -10 -8 -3 -12 -2 -9 4 6 10 25 14 25 6z m310 -211 c0 -2 -9 -9
-20 -15 -28 -15 -120 -23 -120 -10 0 5 17 11 38 11 64 3 70 4 78 12 8 8 24 10
24 2z"/>
<path d="M3220 5250 c8 -5 22 -9 30 -9 10 0 8 3 -5 9 -27 12 -43 12 -25 0z"/>
<path d="M2812 5248 c4 -13 728 -201 737 -192 12 11 -29 25 -219 73 -113 28
-272 69 -355 91 -169 45 -168 45 -163 28z"/>
<path d="M2817 5202 c4 -16 30 -25 136 -52 184 -44 587 -140 592 -140 3 0 5 6
5 13 0 8 -122 43 -357 101 -197 49 -363 91 -370 93 -7 3 -10 -3 -6 -15z"/>
<path d="M790 4305 c0 -8 4 -15 10 -15 5 0 7 7 4 15 -4 8 -8 15 -10 15 -2 0
-4 -7 -4 -15z"/>
<path d="M2165 4609 c50 -10 115 -20 145 -23 30 -3 -3 5 -75 19 -71 13 -137
24 -145 24 -8 -1 26 -10 75 -20z"/>
<path d="M2383 4573 c9 -2 23 -2 30 0 6 3 -1 5 -18 5 -16 0 -22 -2 -12 -5z"/>
<path d="M2438 4563 c6 -2 18 -2 25 0 6 3 1 5 -13 5 -14 0 -19 -2 -12 -5z"/>
<path d="M2498 4553 c6 -2 18 -2 25 0 6 3 1 5 -13 5 -14 0 -19 -2 -12 -5z"/>
<path d="M2066 4535 c-8 -22 -8 -25 4 -25 6 0 10 7 10 15 0 8 6 12 14 9 8 -3
12 -12 9 -20 -3 -8 1 -14 10 -14 10 0 15 8 14 20 -1 11 -7 20 -13 20 -7 0 -19
3 -27 6 -8 3 -17 -2 -21 -11z"/>
<path d="M2558 4543 c6 -2 18 -2 25 0 6 3 1 5 -13 5 -14 0 -19 -2 -12 -5z"/>
<path d="M2623 4533 c9 -2 23 -2 30 0 6 3 -1 5 -18 5 -16 0 -22 -2 -12 -5z"/>
<path d="M2683 4523 c9 -2 23 -2 30 0 6 3 -1 5 -18 5 -16 0 -22 -2 -12 -5z"/>
<path d="M2765 4509 c22 -4 51 -8 65 -7 16 0 11 3 -15 9 -22 4 -51 8 -65 7
-16 0 -11 -3 15 -9z"/>
<path d="M2868 4493 c6 -2 18 -2 25 0 6 3 1 5 -13 5 -14 0 -19 -2 -12 -5z"/>
<path d="M2998 4473 c7 -3 16 -2 19 1 4 3 -2 6 -13 5 -11 0 -14 -3 -6 -6z"/>
<path d="M2035 4460 c3 -5 8 -10 11 -10 2 0 4 5 4 10 0 6 -5 10 -11 10 -5 0
-7 -4 -4 -10z"/>
<path d="M3058 4463 c7 -3 16 -2 19 1 4 3 -2 6 -13 5 -11 0 -14 -3 -6 -6z"/>
<path d="M3110 4456 c0 -2 13 -6 29 -8 17 -2 28 -1 25 4 -5 8 -54 12 -54 4z"/>
<path d="M3368 4413 c7 -3 16 -2 19 1 4 3 -2 6 -13 5 -11 0 -14 -3 -6 -6z"/>
<path d="M3413 4403 c9 -2 23 -2 30 0 6 3 -1 5 -18 5 -16 0 -22 -2 -12 -5z"/>
<path d="M3205 4333 c1 -16 -2 -32 -9 -36 -7 -6 -4 -7 7 -3 10 3 31 -1 48 -9
26 -14 43 -5 19 10 -6 4 -10 12 -9 18 4 37 -2 47 -30 47 -26 0 -29 -3 -26 -27z"/>
<path d="M2630 4090 c0 -51 3 -60 18 -59 10 0 12 3 5 6 -20 7 -17 93 3 93 8 0
12 5 9 10 -3 6 -13 10 -21 10 -11 0 -14 -14 -14 -60z"/>
<path d="M2740 4122 c0 -6 6 -13 13 -15 6 -3 7 -6 1 -6 -13 -1 -6 -61 8 -61
14 0 5 83 -9 88 -7 2 -13 -1 -13 -6z"/>
<path d="M3741 4011 c-11 -7 -9 -13 8 -30 l21 -21 0 30 c0 31 -6 36 -29 21z"/>
<path d="M5636 4204 c-19 -18 -21 -31 -3 -17 6 6 19 12 27 15 9 3 10 7 3 11
-6 4 -19 0 -27 -9z"/>
<path d="M5828 4113 c7 -3 16 -2 19 1 4 3 -2 6 -13 5 -11 0 -14 -3 -6 -6z"/>
<path d="M4410 3850 c0 -5 5 -10 11 -10 5 0 7 5 4 10 -3 6 -8 10 -11 10 -2 0
-4 -4 -4 -10z"/>
<path d="M5415 3920 c-3 -5 -2 -10 4 -10 5 0 13 5 16 10 3 6 2 10 -4 10 -5 0
-13 -4 -16 -10z"/>
<path d="M2394 3529 c15 -12 30 -18 33 -15 8 8 -27 35 -46 36 -7 0 -2 -10 13
-21z"/>
<path d="M2408 3143 c18 -2 45 -2 60 0 15 2 0 4 -33 4 -33 0 -45 -2 -27 -4z"/>
<path d="M2938 3143 c-16 -2 -28 -11 -28 -19 0 -21 76 -19 84 2 10 27 10 27
-56 17z"/>
<path d="M2598 3113 c18 -2 45 -2 60 0 15 2 0 4 -33 4 -33 0 -45 -2 -27 -4z"/>
<path d="M2728 3113 c12 -2 30 -2 40 0 9 3 -1 5 -23 4 -22 0 -30 -2 -17 -4z"/>
<path d="M2868 3113 c6 -2 18 -2 25 0 6 3 1 5 -13 5 -14 0 -19 -2 -12 -5z"/>
<path d="M7960 3141 c0 -47 4 -70 10 -66 11 7 7 121 -4 132 -3 4 -6 -26 -6
-66z"/>
<path d="M3510 3145 c0 -9 9 -15 21 -15 18 0 19 2 5 15 -8 8 -17 15 -20 15 -3
0 -6 -7 -6 -15z"/>
<path d="M3427 3021 c-3 -14 -1 -18 9 -14 8 3 14 11 14 19 0 21 -17 17 -23 -5z"/>
<path d="M7608 2763 c7 -3 16 -2 19 1 4 3 -2 6 -13 5 -11 0 -14 -3 -6 -6z"/>
<path d="M993 2767 c0 -8 12 -14 28 -14 23 0 25 3 14 14 -8 7 -20 13 -28 13
-7 0 -14 -6 -14 -13z"/>
<path d="M1157 2760 c-4 -15 0 -20 14 -20 12 0 19 7 19 20 0 11 -6 20 -14 20
-7 0 -16 -9 -19 -20z"/>
<path d="M993 2733 c9 -2 23 -2 30 0 6 3 -1 5 -18 5 -16 0 -22 -2 -12 -5z"/>
<path d="M1053 2733 c9 -2 25 -2 35 0 9 3 1 5 -18 5 -19 0 -27 -2 -17 -5z"/>
<path d="M2668 2803 c7 -3 16 -2 19 1 4 3 -2 6 -13 5 -11 0 -14 -3 -6 -6z"/>
<path d="M2718 2753 c7 -3 16 -2 19 1 4 3 -2 6 -13 5 -11 0 -14 -3 -6 -6z"/>
<path d="M5026 2611 c-4 -5 -2 -12 3 -15 5 -4 12 -2 15 3 4 5 2 12 -3 15 -5 4
-12 2 -15 -3z"/>
<path d="M3951 2104 c0 -11 3 -14 6 -6 3 7 2 16 -1 19 -3 4 -6 -2 -5 -13z"/>
<path d="M3938 1961 c-4 -11 -198 -20 -198 -9 0 4 -7 8 -15 8 -10 0 -15 -10
-15 -30 0 -29 2 -31 33 -25 17 3 67 9 111 14 74 9 121 30 98 45 -6 3 -12 2
-14 -3z"/>
<path d="M3750 1880 c-20 -6 -21 -8 -5 -8 11 0 31 4 45 8 20 6 21 8 5 8 -11 0
-31 -4 -45 -8z"/>
<path d="M3495 1660 c3 -5 8 -10 11 -10 2 0 4 5 4 10 0 6 -5 10 -11 10 -5 0
-7 -4 -4 -10z"/>
<path d="M3533 1643 c9 -2 25 -2 35 0 9 3 1 5 -18 5 -19 0 -27 -2 -17 -5z"/>
<path d="M2200 6116 c0 -9 7 -16 16 -16 17 0 14 22 -4 28 -7 2 -12 -3 -12 -12z"/>
<path d="M2303 6110 c1 -12 8 -20 19 -20 16 0 17 3 8 20 -6 11 -15 20 -20 20
-5 0 -8 -9 -7 -20z"/>
<path d="M2370 6123 c19 -3 41 -9 48 -15 7 -6 25 -12 40 -13 88 -7 219 -126
223 -202 0 -11 3 -13 6 -5 3 7 0 25 -5 41 -6 17 -6 33 -1 38 16 16 -27 69 -92
113 -64 44 -64 44 -159 46 -52 1 -79 0 -60 -3z m274 -104 c-3 -5 -1 -9 5 -9 6
0 15 -9 21 -20 7 -14 7 -20 0 -20 -5 0 -10 6 -10 14 0 8 -7 17 -16 20 -8 3
-12 10 -9 16 3 5 1 10 -4 10 -6 0 -11 5 -11 11 0 8 5 8 15 -1 8 -7 12 -16 9
-21z"/>
<path d="M2590 6115 c0 -9 6 -12 15 -9 8 4 12 10 9 15 -8 14 -24 10 -24 -6z"/>
<path d="M2700 6103 c25 -80 40 -137 40 -152 0 -9 4 -21 8 -26 20 -23 62 -139
62 -171 0 -43 -16 -75 -34 -68 -13 5 -113 -102 -104 -112 3 -2 25 21 49 51 41
51 59 66 59 48 -1 -22 -149 -173 -170 -172 -11 0 -9 3 5 10 23 12 61 59 47 59
-5 0 -19 -11 -32 -25 -16 -17 -34 -25 -57 -25 -19 0 -41 -7 -49 -14 -12 -13
-8 -15 33 -19 41 -3 39 -4 -17 -5 l-65 -1 33 29 c23 22 42 30 69 30 30 0 43 8
76 43 21 23 53 61 70 85 17 23 36 41 43 38 21 -8 6 67 -18 87 -23 20 -31 17
-33 -13 -2 -24 -56 -120 -68 -120 -4 0 -3 10 3 23 9 20 9 19 -7 -3 -87 -119
-190 -212 -288 -256 -46 -21 -54 -28 -44 -40 13 -15 64 -20 54 -4 -3 5 -12 7
-20 3 -23 -8 -18 5 6 18 12 6 19 7 15 1 -3 -5 1 -13 10 -16 12 -4 14 -1 9 13
-4 15 5 27 39 50 48 33 56 36 56 22 0 -5 -20 -19 -46 -31 -44 -22 -45 -23 -27
-44 27 -32 30 -33 117 -47 126 -20 194 -17 247 9 25 12 48 22 51 22 3 0 30 11
61 25 l55 24 -15 58 c-8 32 -23 65 -34 73 -13 10 -21 33 -26 68 -7 62 -20 60
167 32 74 -10 134 -18 135 -17 0 1 -2 70 -5 153 -6 171 -5 168 -108 278 l-53
56 -154 0 -153 0 8 -27z m-119 -536 l-23 -22 17 28 c10 15 20 25 23 22 3 -3
-5 -16 -17 -28z m-56 -117 c-3 -5 -12 -7 -20 -3 -21 7 -19 13 6 13 11 0 18 -4
14 -10z m-15 -30 c0 -5 -7 -7 -15 -4 -8 4 -15 8 -15 10 0 2 7 4 15 4 8 0 15
-4 15 -10z m347 -6 c-3 -3 -12 -4 -19 -1 -8 3 -5 6 6 6 11 1 17 -2 13 -5z
m-357 -25 c25 -14 -9 -10 -50 7 l-35 14 35 -6 c19 -4 42 -10 50 -15z"/>
<path d="M6340 6029 c-74 -55 -139 -105 -145 -111 -12 -14 -25 -23 150 102
145 104 153 110 140 109 -6 0 -71 -45 -145 -100z"/>
<path d="M8375 5954 c-605 -286 -644 -305 -1030 -489 -203 -98 -390 -187 -415
-198 -25 -11 -40 -22 -33 -24 6 -2 40 10 75 28 35 18 167 80 293 139 127 59
426 200 665 312 239 113 530 249 645 303 116 54 212 99 214 101 2 2 -7 4 -20
4 -13 0 -190 -79 -394 -176z"/>
<path d="M2396 6085 c4 -8 10 -15 15 -15 4 0 6 7 3 15 -4 8 -10 15 -15 15 -4
0 -6 -7 -3 -15z"/>
<path d="M7499 6082 c-13 -10 -40 -26 -59 -35 -19 -9 -34 -18 -32 -21 6 -14 1
-20 -7 -8 -6 10 -14 8 -37 -11 -16 -13 -46 -31 -66 -41 -32 -14 -51 -36 -32
-36 5 0 112 59 144 80 8 5 31 19 50 30 46 26 88 59 74 60 -6 0 -22 -8 -35 -18z"/>
<path d="M2365 6080 c3 -5 8 -10 11 -10 2 0 4 5 4 10 0 6 -5 10 -11 10 -5 0
-7 -4 -4 -10z"/>
<path d="M2445 6050 c3 -5 8 -10 11 -10 2 0 4 5 4 10 0 6 -5 10 -11 10 -5 0
-7 -4 -4 -10z"/>
<path d="M2050 6033 c0 -6 -9 -9 -21 -6 -16 4 -20 2 -17 -8 7 -21 34 -23 42
-3 4 9 4 19 1 22 -3 3 -5 1 -5 -5z"/>
<path d="M2120 6030 c-12 -7 -10 -9 8 -7 12 0 22 5 22 9 0 11 -12 10 -30 -2z"/>
<path d="M2225 6030 c3 -5 10 -10 16 -10 5 0 9 5 9 10 0 6 -7 10 -16 10 -8 0
-12 -4 -9 -10z"/>
<path d="M1904 5984 c3 -9 6 -17 6 -20 0 -2 7 -1 15 2 12 5 13 10 4 20 -16 19
-33 18 -25 -2z"/>
<path d="M7705 5970 c-3 -5 -1 -10 4 -10 6 0 11 5 11 10 0 6 -2 10 -4 10 -3 0
-8 -4 -11 -10z"/>
<path d="M1830 5950 c0 -5 5 -10 11 -10 5 0 7 5 4 10 -3 6 -8 10 -11 10 -2 0
-4 -4 -4 -10z"/>
<path d="M1790 5943 c1 -18 19 -35 29 -28 9 5 9 10 0 21 -12 15 -29 19 -29 7z"/>
<path d="M2156 5935 c4 -8 13 -15 21 -15 13 0 13 3 3 15 -7 8 -16 15 -21 15
-5 0 -6 -7 -3 -15z"/>
<path d="M2063 5925 c0 -7 6 -11 14 -8 7 3 13 6 13 8 0 2 -6 5 -13 8 -8 3 -14
-1 -14 -8z"/>
<path d="M1770 5919 c0 -5 5 -7 10 -4 6 3 10 8 10 11 0 2 -4 4 -10 4 -5 0 -10
-5 -10 -11z"/>
<path d="M1935 5915 l-30 -13 25 -10 c27 -10 53 -5 44 9 -3 5 0 9 5 9 6 0 11
5 11 10 0 13 -18 11 -55 -5z"/>
<path d="M2251 5914 c0 -11 3 -14 6 -6 3 7 2 16 -1 19 -3 4 -6 -2 -5 -13z"/>
<path d="M2620 5920 c0 -5 5 -10 11 -10 5 0 7 5 4 10 -3 6 -8 10 -11 10 -2 0
-4 -4 -4 -10z"/>
<path d="M7206 5915 c-11 -8 -17 -17 -14 -20 8 -9 58 17 52 26 -7 12 -16 11
-38 -6z"/>
<path d="M2575 5911 c-3 -5 -1 -12 5 -16 5 -3 10 1 10 9 0 18 -6 21 -15 7z"/>
<path d="M2720 5882 c0 -26 4 -41 10 -37 13 8 13 45 0 65 -7 11 -10 3 -10 -28z"/>
<path d="M6135 5879 c-59 -45 -67 -57 -12 -18 42 29 65 50 55 49 -2 0 -21 -14
-43 -31z"/>
<path d="M5025 5888 c-16 -6 -31 -11 -32 -12 -1 -1 4 -27 11 -57 12 -53 12
-57 -11 -83 -26 -31 -29 -64 -8 -92 13 -18 14 -18 21 13 9 45 36 66 86 66 46
0 78 -27 78 -67 1 -21 1 -21 20 3 37 44 22 81 -43 109 -23 10 -27 16 -21 35
11 36 23 46 62 49 l37 3 -36 23 c-40 24 -111 29 -164 10z"/>
<path d="M7167 5893 c-3 -5 -35 -24 -71 -43 -36 -18 -66 -37 -66 -42 0 -14 15
-9 50 17 19 14 39 25 44 25 15 1 60 39 53 46 -3 3 -7 2 -10 -3z"/>
<path d="M1730 5880 c0 -6 -4 -8 -10 -5 -5 3 -10 1 -10 -4 0 -13 10 -14 29 -2
9 6 10 11 2 15 -6 4 -11 2 -11 -4z"/>
<path d="M2505 5880 c3 -5 8 -10 11 -10 2 0 4 5 4 10 0 6 -5 10 -11 10 -5 0
-7 -4 -4 -10z"/>
<path d="M2455 5870 c-3 -5 1 -10 10 -10 9 0 13 5 10 10 -3 6 -8 10 -10 10 -2
0 -7 -4 -10 -10z"/>
<path d="M2090 5862 c0 -5 7 -9 15 -9 8 0 12 4 9 9 -3 4 -9 8 -15 8 -5 0 -9
-4 -9 -8z"/>
<path d="M2630 5860 c0 -5 5 -10 11 -10 5 0 7 5 4 10 -3 6 -8 10 -11 10 -2 0
-4 -4 -4 -10z"/>
<path d="M1850 5850 c0 -5 5 -10 11 -10 5 0 7 5 4 10 -3 6 -8 10 -11 10 -2 0
-4 -4 -4 -10z"/>
<path d="M2585 5850 c-3 -5 -1 -10 4 -10 6 0 11 5 11 10 0 6 -2 10 -4 10 -3 0
-8 -4 -11 -10z"/>
<path d="M2422 5833 c2 -9 8 -18 15 -20 7 -3 9 3 6 16 -6 25 -26 28 -21 4z"/>
<path d="M2493 5813 c0 -17 5 -16 23 1 12 13 12 15 -4 13 -10 0 -19 -7 -19
-14z"/>
<path d="M5868 5687 c-108 -78 -195 -143 -193 -145 4 -4 395 277 395 284 0 7
2 8 -202 -139z"/>
<path d="M1640 5805 c0 -9 6 -12 15 -9 8 4 12 10 9 15 -8 14 -24 10 -24 -6z"/>
<path d="M2465 5810 c3 -5 8 -10 11 -10 2 0 4 5 4 10 0 6 -5 10 -11 10 -5 0
-7 -4 -4 -10z"/>
<path d="M1776 5785 c4 -8 10 -12 15 -9 11 6 2 24 -11 24 -5 0 -7 -7 -4 -15z"/>
<path d="M1890 5786 c0 -9 5 -16 10 -16 6 0 10 4 10 9 0 6 -4 13 -10 16 -5 3
-10 -1 -10 -9z"/>
<path d="M1985 5760 c-3 -6 1 -7 9 -4 18 7 21 14 7 14 -6 0 -13 -4 -16 -10z"/>
<path d="M1495 5750 c4 -6 11 -8 16 -5 14 9 11 15 -7 15 -8 0 -12 -5 -9 -10z"/>
<path d="M1460 5743 c1 -20 20 -37 29 -28 7 7 4 14 -9 23 -11 7 -20 9 -20 5z"/>
<path d="M4932 5731 c2 -14 9 -26 16 -29 17 -5 15 10 -3 34 -15 18 -15 18 -13
-5z"/>
<path d="M2560 5724 c0 -8 5 -12 10 -9 6 4 8 11 5 16 -9 14 -15 11 -15 -7z"/>
<path d="M2605 5730 c3 -5 8 -10 11 -10 2 0 4 5 4 10 0 6 -5 10 -11 10 -5 0
-7 -4 -4 -10z"/>
<path d="M5809 5723 c-13 -16 -12 -17 4 -4 9 7 17 15 17 17 0 8 -8 3 -21 -13z"/>
<path d="M1600 5720 c0 -5 5 -10 11 -10 5 0 7 5 4 10 -3 6 -8 10 -11 10 -2 0
-4 -4 -4 -10z"/>
<path d="M1736 5715 c4 -8 10 -12 15 -9 11 6 2 24 -11 24 -5 0 -7 -7 -4 -15z"/>
<path d="M1846 5705 c4 -8 10 -12 15 -9 11 6 2 24 -11 24 -5 0 -7 -7 -4 -15z"/>
<path d="M2055 5700 c-50 -24 -83 -51 -70 -56 6 -3 9 -20 7 -38 -4 -33 -2 -35
34 -45 26 -7 40 -7 42 -1 7 19 30 11 25 -9 -3 -11 2 -21 13 -25 23 -9 31 1 17
22 -16 27 -27 86 -14 78 6 -4 11 -2 11 3 0 19 28 12 35 -9 7 -23 16 -25 33 -8
7 7 12 8 12 4 0 -5 7 -3 15 4 8 7 15 24 15 39 0 55 -98 78 -175 41z"/>
<path d="M5769 5693 c-13 -16 -12 -17 4 -4 16 13 21 21 13 21 -2 0 -10 -8 -17
-17z"/>
<path d="M1460 5680 c8 -5 20 -10 25 -10 6 0 3 5 -5 10 -8 5 -19 10 -25 10 -5
0 -3 -5 5 -10z"/>
<path d="M2560 5681 c0 -5 5 -13 10 -16 6 -3 10 -2 10 4 0 5 -4 13 -10 16 -5
3 -10 2 -10 -4z"/>
<path d="M2526 5671 c-4 -7 -5 -15 -2 -18 9 -9 19 4 14 18 -4 11 -6 11 -12 0z"/>
<path d="M5729 5663 c-13 -16 -12 -17 4 -4 9 7 17 15 17 17 0 8 -8 3 -21 -13z"/>
<path d="M6586 5654 c-37 -26 -38 -28 -32 -72 3 -24 6 -62 6 -83 0 -30 3 -37
15 -33 10 4 15 21 16 48 1 22 4 31 6 19 2 -13 9 -23 15 -23 6 0 5 -7 -3 -17
-13 -15 -12 -15 9 -4 15 8 21 19 19 34 -2 12 -1 52 2 90 4 44 3 67 -4 67 -6 0
-28 -12 -49 -26z"/>
<path d="M1447 5654 c6 -15 23 -19 23 -5 0 5 -7 11 -14 14 -10 4 -13 1 -9 -9z"/>
<path d="M1576 5656 c3 -9 11 -16 16 -16 13 0 5 23 -10 28 -7 2 -10 -2 -6 -12z"/>
<path d="M2520 5619 c0 -5 5 -7 10 -4 6 3 10 8 10 11 0 2 -4 4 -10 4 -5 0 -10
-5 -10 -11z"/>
<path d="M1590 5606 c0 -2 7 -7 16 -10 8 -3 12 -2 9 4 -6 10 -25 14 -25 6z"/>
<path d="M2475 5600 c3 -5 10 -10 16 -10 5 0 9 5 9 10 0 6 -7 10 -16 10 -8 0
-12 -4 -9 -10z"/>
<path d="M1445 5590 c3 -5 8 -10 11 -10 2 0 4 5 4 10 0 6 -5 10 -11 10 -5 0
-7 -4 -4 -10z"/>
<path d="M2180 5593 c0 -5 5 -15 10 -23 9 -13 11 -13 19 0 5 8 7 18 5 22 -6
10 -34 11 -34 1z"/>
<path d="M1560 5580 c0 -5 5 -10 11 -10 5 0 7 5 4 10 -3 6 -8 10 -11 10 -2 0
-4 -4 -4 -10z"/>
<path d="M2135 5580 c-3 -5 1 -10 10 -10 9 0 13 5 10 10 -3 6 -8 10 -10 10 -2
0 -7 -4 -10 -10z"/>
<path d="M1687 5564 c-9 -9 16 -44 30 -44 7 0 13 4 13 8 0 13 -36 43 -43 36z"/>
<path d="M2460 5560 c0 -5 5 -10 11 -10 5 0 7 5 4 10 -3 6 -8 10 -11 10 -2 0
-4 -4 -4 -10z"/>
<path d="M1620 5551 c0 -12 28 -22 35 -12 3 5 -2 12 -11 15 -21 8 -24 8 -24
-3z"/>
<path d="M2425 5550 c3 -5 11 -10 16 -10 6 0 7 5 4 10 -3 6 -11 10 -16 10 -6
0 -7 -4 -4 -10z"/>
<path d="M1576 5532 c-3 -6 -1 -14 5 -17 15 -10 25 3 12 16 -7 7 -13 7 -17 1z"/>
<path d="M1671 5523 c-1 -12 4 -25 10 -28 14 -9 27 4 13 13 -6 4 -14 14 -17
22 -4 10 -6 8 -6 -7z"/>
<path d="M1970 5530 c0 -5 5 -10 11 -10 5 0 7 5 4 10 -3 6 -8 10 -11 10 -2 0
-4 -4 -4 -10z"/>
<path d="M2280 5530 c0 -5 5 -10 10 -10 6 0 10 5 10 10 0 6 -4 10 -10 10 -5 0
-10 -4 -10 -10z"/>
<path d="M2242 5521 c4 -13 18 -16 19 -4 0 4 -5 9 -11 12 -7 2 -11 -2 -8 -8z"/>
<path d="M1538 5513 c7 -3 16 -2 19 1 4 3 -2 6 -13 5 -11 0 -14 -3 -6 -6z"/>
<path d="M1503 5486 c0 -8 8 -11 20 -8 14 4 16 7 5 13 -19 12 -25 11 -25 -5z"/>
<path d="M1630 5480 c0 -5 7 -10 16 -10 8 0 12 5 9 10 -3 6 -10 10 -16 10 -5
0 -9 -4 -9 -10z"/>
<path d="M1466 5465 c4 -8 11 -15 16 -15 6 0 5 6 -2 15 -7 8 -14 15 -16 15 -2
0 -1 -7 2 -15z"/>
<path d="M2106 5472 c-3 -6 -1 -14 5 -17 14 -9 20 -2 10 14 -6 8 -11 9 -15 3z"/>
<path d="M2316 5471 c-4 -5 -2 -12 3 -15 5 -4 12 -2 15 3 4 5 2 12 -3 15 -5 4
-12 2 -15 -3z"/>
<path d="M2070 5445 c0 -8 5 -15 10 -15 6 0 10 7 10 15 0 8 -4 15 -10 15 -5 0
-10 -7 -10 -15z"/>
<path d="M2285 5450 c3 -5 8 -10 11 -10 2 0 4 5 4 10 0 6 -5 10 -11 10 -5 0
-7 -4 -4 -10z"/>
<path d="M1552 5441 c-10 -6 -9 -11 4 -22 16 -12 17 -12 11 3 -3 9 -1 19 6 22
7 2 8 5 2 5 -5 0 -16 -3 -23 -8z"/>
<path d="M2020 5440 c0 -5 5 -10 11 -10 5 0 7 5 4 10 -3 6 -8 10 -11 10 -2 0
-4 -4 -4 -10z"/>
<path d="M1520 5420 c0 -5 5 -10 11 -10 5 0 7 5 4 10 -3 6 -8 10 -11 10 -2 0
-4 -4 -4 -10z"/>
<path d="M2145 5390 c3 -5 8 -10 11 -10 2 0 4 5 4 10 0 6 -5 10 -11 10 -5 0
-7 -4 -4 -10z"/>
<path d="M1697 5379 c7 -7 15 -10 18 -7 3 3 -2 9 -12 12 -14 6 -15 5 -6 -5z"/>
<path d="M2105 5380 c3 -5 10 -10 16 -10 5 0 9 5 9 10 0 6 -7 10 -16 10 -8 0
-12 -4 -9 -10z"/>
<path d="M1776 5371 c-3 -5 1 -12 10 -15 20 -8 29 -1 19 13 -8 13 -22 14 -29
2z"/>
<path d="M1870 5355 c0 -9 5 -15 11 -13 6 2 11 8 11 13 0 5 -5 11 -11 13 -6 2
-11 -4 -11 -13z"/>
<path d="M1960 5360 c0 -5 4 -10 9 -10 6 0 13 5 16 10 3 6 -1 10 -9 10 -9 0
-16 -4 -16 -10z"/>
<path d="M1746 5345 c4 -8 11 -15 16 -15 6 0 5 6 -2 15 -7 8 -14 15 -16 15 -2
0 -1 -7 2 -15z"/>
<path d="M1922 5349 c2 -7 10 -15 17 -17 8 -3 12 1 9 9 -2 7 -10 15 -17 17 -8
3 -12 -1 -9 -9z"/>
<path d="M1830 5340 c0 -5 7 -10 16 -10 8 0 12 5 9 10 -3 6 -10 10 -16 10 -5
0 -9 -4 -9 -10z"/>
<path d="M2450 5275 c45 -17 71 -19 65 -2 -3 7 -26 13 -53 14 l-47 2 35 -14z"/>
<path d="M6864 5050 c0 -69 1 -97 3 -62 2 34 2 90 0 125 -2 34 -3 6 -3 -63z"/>
<path d="M4773 4343 c9 -2 25 -2 35 0 9 3 1 5 -18 5 -19 0 -27 -2 -17 -5z"/>
<path d="M4830 4340 c0 -5 5 -10 11 -10 5 0 7 5 4 10 -3 6 -8 10 -11 10 -2 0
-4 -4 -4 -10z"/>
<path d="M4820 4299 c0 -5 5 -7 10 -4 6 3 10 8 10 11 0 2 -4 4 -10 4 -5 0 -10
-5 -10 -11z"/>
<path d="M4577 4277 c-8 -6 -7 -7 5 -4 10 4 18 -1 21 -14 6 -22 30 -25 46 -5
9 11 9 16 -1 23 -17 11 -56 11 -71 0z"/>
<path d="M4692 4279 c-14 -5 -22 -17 -22 -31 0 -22 4 -23 60 -22 33 0 63 3 66
7 3 3 12 3 20 0 10 -4 14 3 14 22 0 22 -4 26 -19 22 -11 -2 -37 -1 -58 3 -22
3 -49 3 -61 -1z"/>
<path d="M4882 4235 c-10 -12 -10 -15 2 -15 7 0 16 7 20 15 7 19 -5 19 -22 0z"/>
<path d="M4423 4210 c-24 -10 -43 -21 -43 -24 0 -5 90 31 99 40 10 10 -17 2
-56 -16z"/>
<path d="M4928 4213 c7 -3 16 -2 19 1 4 3 -2 6 -13 5 -11 0 -14 -3 -6 -6z"/>
<path d="M5000 4194 c25 -7 52 -13 60 -13 21 1 -60 27 -85 28 -11 0 0 -7 25
-15z"/>
<path d="M5095 4191 l20 -8 -20 -5 c-15 -3 -10 -7 18 -12 20 -5 37 -13 37 -18
0 -12 29 -42 35 -36 3 2 8 18 11 35 5 28 4 31 -24 35 -17 2 -29 1 -26 -4 3 -4
-2 -8 -11 -8 -9 0 -14 4 -11 9 6 9 -17 22 -37 20 -7 0 -3 -4 8 -8z m85 -31 c0
-5 -4 -10 -9 -10 -6 0 -13 5 -16 10 -3 6 1 10 9 10 9 0 16 -4 16 -10z"/>
<path d="M6820 4010 c0 -5 5 -10 10 -10 6 0 10 5 10 10 0 6 -4 10 -10 10 -5 0
-10 -4 -10 -10z"/>
<path d="M4820 3980 c0 -5 5 -10 10 -10 6 0 10 5 10 10 0 6 -4 10 -10 10 -5 0
-10 -4 -10 -10z"/>
<path d="M4860 3950 c0 -5 5 -10 11 -10 5 0 7 5 4 10 -3 6 -8 10 -11 10 -2 0
-4 -4 -4 -10z"/>
<path d="M4852 3890 c0 -14 2 -19 5 -12 2 6 2 18 0 25 -3 6 -5 1 -5 -13z"/>
<path d="M5305 3870 c-3 -5 1 -10 9 -10 9 0 16 5 16 10 0 6 -4 10 -9 10 -6 0
-13 -4 -16 -10z"/>
<path d="M4852 3815 c0 -16 2 -22 5 -12 2 9 2 23 0 30 -3 6 -5 -1 -5 -18z"/>
<path d="M4852 3755 c0 -16 2 -22 5 -12 2 9 2 23 0 30 -3 6 -5 -1 -5 -18z"/>
<path d="M4988 3410 c18 -11 37 -20 43 -20 6 0 8 -3 6 -8 -3 -4 26 -5 64 -2
39 3 70 1 72 -4 2 -5 9 -6 16 -2 9 6 8 11 -6 22 -21 16 -37 18 -28 4 11 -18
-88 -10 -134 10 -56 26 -75 26 -33 0z"/>
<path d="M4848 3413 c6 -2 18 -2 25 0 6 3 1 5 -13 5 -14 0 -19 -2 -12 -5z"/>
<path d="M4930 3400 c0 -5 5 -10 10 -10 6 0 10 5 10 10 0 6 -4 10 -10 10 -5 0
-10 -4 -10 -10z"/>
<path d="M4600 1830 l-35 -7 35 -1 c19 0 44 3 55 8 l20 9 -20 -1 c-11 0 -36
-4 -55 -8z"/>
<path d="M4715 1800 c3 -5 10 -10 16 -10 5 0 9 5 9 10 0 6 -7 10 -16 10 -8 0
-12 -4 -9 -10z"/>
<path d="M4815 1760 c-3 -5 -2 -10 4 -10 5 0 13 5 16 10 3 6 2 10 -4 10 -5 0
-13 -4 -16 -10z"/>
<path d="M8295 1070 c-3 -6 1 -7 9 -4 18 7 21 14 7 14 -6 0 -13 -4 -16 -10z"/>
<path d="M8456 1013 c-7 -18 19 -16 34 1 9 12 8 15 -9 13 -11 -1 -23 -7 -25
-14z"/>
<path d="M8628 973 c-25 -6 -23 -23 3 -23 11 0 18 4 14 9 -3 5 3 12 12 14 12
3 13 5 3 5 -8 0 -23 -2 -32 -5z"/>
<path d="M8582 925 c-17 -19 -1 -19 24 0 14 11 15 14 4 14 -8 0 -21 -6 -28
-14z"/>
<path d="M8810 919 c0 -6 -9 -8 -20 -4 -15 5 -18 3 -14 -8 3 -8 1 -18 -5 -22
-15 -9 -14 -22 3 -22 8 0 12 6 9 14 -3 7 2 13 11 13 8 0 20 9 26 20 7 14 7 20
0 20 -5 0 -10 -5 -10 -11z"/>
<path d="M8855 899 c-4 -6 -4 -13 -1 -16 3 -4 6 -1 6 5 0 6 8 13 18 15 15 4
15 5 0 6 -9 0 -20 -4 -23 -10z"/>
<path d="M8417 876 c-4 -10 -1 -13 9 -9 15 6 19 23 5 23 -5 0 -11 -7 -14 -14z"/>
<path d="M8865 863 c-11 -8 -29 -21 -40 -29 -15 -11 -17 -16 -7 -26 9 -9 12
-8 12 4 0 9 9 19 19 23 20 6 47 33 40 39 -2 3 -13 -2 -24 -11z"/>
<path d="M8966 872 c-3 -4 4 -9 15 -9 23 -2 25 3 4 10 -8 4 -16 3 -19 -1z"/>
<path d="M8724 845 c-18 -14 -18 -14 7 -13 17 2 25 7 22 15 -6 16 -5 16 -29
-2z"/>
<path d="M9070 829 c-12 -8 -10 -9 8 -4 34 10 26 -10 -17 -44 -25 -20 -42 -28
-46 -21 -4 6 1 18 11 25 11 8 16 15 12 15 -4 0 -21 -13 -38 -29 -23 -21 -28
-31 -19 -36 7 -5 10 -4 6 2 -4 6 0 13 7 16 8 3 16 1 18 -5 4 -10 45 5 58 21 3
4 20 17 38 30 18 13 32 24 30 26 -12 10 -56 12 -68 4z"/>
<path d="M8585 810 c3 -5 8 -10 11 -10 2 0 4 5 4 10 0 6 -5 10 -11 10 -5 0 -7
-4 -4 -10z"/>
<path d="M9152 790 c-12 -20 -12 -21 13 -4 28 18 31 24 12 24 -7 0 -18 -9 -25
-20z"/>
<path d="M9195 780 c3 -5 8 -10 11 -10 2 0 4 5 4 10 0 6 -5 10 -11 10 -5 0 -7
-4 -4 -10z"/>
<path d="M8346 723 c-6 -14 -5 -15 5 -6 7 7 10 15 7 18 -3 3 -9 -2 -12 -12z"/>
<path d="M8850 730 c0 -9 5 -11 30 -14 21 -2 14 17 -7 20 -13 2 -23 -1 -23 -6z"/>
<path d="M8120 720 c0 -6 7 -10 15 -10 8 0 15 2 15 4 0 2 -7 6 -15 10 -8 3
-15 1 -15 -4z"/>
<path d="M9130 715 c-14 -16 -3 -20 19 -6 8 5 9 11 3 15 -5 3 -15 -1 -22 -9z"/>
<path d="M8230 710 c19 -13 30 -13 30 0 0 6 -10 10 -22 10 -19 0 -20 -2 -8
-10z"/>
<path d="M8410 710 c8 -5 22 -9 30 -9 10 0 8 3 -5 9 -27 12 -43 12 -25 0z"/>
<path d="M8765 710 c-8 -13 5 -13 25 0 13 8 13 10 -2 10 -9 0 -20 -4 -23 -10z"/>
<path d="M8604 688 l-19 -23 25 20 c14 11 27 21 29 22 2 2 0 3 -6 3 -5 0 -18
-10 -29 -22z"/>
<path d="M8815 700 c3 -5 10 -10 16 -10 5 0 9 5 9 10 0 6 -7 10 -16 10 -8 0
-12 -4 -9 -10z"/>
<path d="M8935 690 c3 -5 8 -10 11 -10 2 0 4 5 4 10 0 6 -5 10 -11 10 -5 0 -7
-4 -4 -10z"/>
<path d="M9185 689 c-12 -19 5 -23 22 -6 16 16 16 17 1 17 -9 0 -20 -5 -23
-11z"/>
<path d="M8320 678 c3 -3 19 -12 37 -20 26 -13 30 -13 26 -2 -3 8 -11 14 -18
14 -7 0 -22 3 -32 7 -10 3 -16 4 -13 1z"/>
<path d="M8900 661 c0 -5 9 -7 20 -4 11 3 20 7 20 9 0 2 -9 4 -20 4 -11 0 -20
-4 -20 -9z"/>
<path d="M8956 657 c3 -10 9 -15 12 -12 3 3 0 11 -7 18 -10 9 -11 8 -5 -6z"/>
<path d="M9040 645 c-13 -14 -20 -25 -15 -25 7 0 45 39 45 47 0 7 -8 2 -30
-22z"/>
<path d="M8305 640 c-16 -17 -16 -20 -3 -15 9 4 19 13 22 21 7 19 2 18 -19 -6z"/>
<path d="M8765 649 c-4 -6 -5 -13 -2 -16 7 -7 27 6 27 18 0 12 -17 12 -25 -2z"/>
<path d="M9108 620 c-16 -18 -14 -30 4 -30 4 0 8 7 8 15 0 8 5 15 10 15 6 0
10 5 10 10 0 15 -13 11 -32 -10z"/>
<path d="M9211 616 c-9 -10 -8 -15 2 -19 8 -3 13 3 13 14 0 23 0 23 -15 5z"/>
<path d="M8676 605 c-9 -26 -7 -32 5 -12 6 10 9 21 6 23 -2 3 -7 -2 -11 -11z"/>
<path d="M8840 600 c-8 -5 -12 -12 -9 -15 4 -3 12 1 19 10 14 17 11 19 -10 5z"/>
<path d="M8360 590 c0 -5 4 -10 9 -10 6 0 13 5 16 10 3 6 -1 10 -9 10 -9 0
-16 -4 -16 -10z"/>
<path d="M8480 589 c0 -5 5 -7 10 -4 6 3 10 8 10 11 0 2 -4 4 -10 4 -5 0 -10
-5 -10 -11z"/>
<path d="M9014 578 c-11 -13 -26 -32 -34 -43 -14 -19 -14 -19 3 -6 18 14 62
71 54 71 -2 0 -12 -10 -23 -22z"/>
<path d="M9206 564 c-9 -22 -8 -24 9 -18 8 4 15 12 15 20 0 19 -16 18 -24 -2z"/>
<path d="M8690 549 c0 -5 5 -7 10 -4 6 3 10 8 10 11 0 2 -4 4 -10 4 -5 0 -10
-5 -10 -11z"/>
<path d="M8856 505 c-11 -8 -15 -15 -9 -15 6 0 16 7 23 15 16 19 11 19 -14 0z"/>
<path d="M8980 469 c0 -5 5 -7 10 -4 6 3 10 8 10 11 0 2 -4 4 -10 4 -5 0 -10
-5 -10 -11z"/>
<path d="M8835 430 c-3 -5 -2 -10 4 -10 5 0 13 5 16 10 3 6 2 10 -4 10 -5 0
-13 -4 -16 -10z"/>
<path d="M9045 422 c-5 -4 -23 -22 -40 -41 -25 -28 -26 -32 -8 -22 12 6 28 20
36 31 10 14 20 18 33 13 17 -6 17 -5 5 10 -16 20 -13 19 -26 9z"/>
<path d="M8941 396 c-9 -10 -8 -15 3 -19 16 -6 40 16 29 26 -10 11 -19 8 -32
-7z"/>
<path d="M9105 390 c3 -5 12 -10 20 -10 15 0 28 -27 18 -42 -4 -7 -1 -8 7 -3
9 6 10 2 5 -15 -7 -21 -5 -23 25 -16 18 3 37 6 41 6 5 0 8 18 7 39 l-3 40 -26
-25 c-29 -28 -44 -31 -35 -7 4 10 4 14 0 10 -4 -4 -13 2 -21 13 -14 20 -50 29
-38 10z m110 -60 c3 -5 -1 -10 -10 -10 -9 0 -13 5 -10 10 3 6 8 10 10 10 2 0
7 -4 10 -10z"/>
<path d="M9051 369 c6 -4 9 -11 5 -17 -6 -10 29 -24 38 -14 3 3 6 13 6 22 0
12 -9 17 -30 17 -17 0 -26 -4 -19 -8z"/>
<path d="M8992 280 c-12 -19 -11 -20 8 -8 20 13 27 28 12 28 -4 0 -13 -9 -20
-20z"/>
<path d="M9202 289 c2 -6 8 -10 13 -10 5 0 11 4 13 10 2 6 -4 11 -13 11 -9 0
-15 -5 -13 -11z"/>
<path d="M9207 206 c-3 -8 0 -16 7 -19 6 -3 13 4 13 14 2 22 -12 25 -20 5z"/>
</g>
</svg>
